<?xml version="1.0" encoding="utf-8"?>
<!-- Generator: Adobe Illustrator 18.0.0, SVG Export Plug-In . SVG Version: 6.00 Build 0)  -->
<!DOCTYPE svg PUBLIC "-//W3C//DTD SVG 1.1 Tiny//EN" "http://www.w3.org/Graphics/SVG/1.1/DTD/svg11-tiny.dtd">
<svg version="1.1" baseProfile="tiny" id="Capa_1" xmlns="http://www.w3.org/2000/svg" xmlns:xlink="http://www.w3.org/1999/xlink"
	 x="0px" y="0px" viewBox="0 0 480 255" xml:space="preserve">
<rect fill="#508D2C" width="480" height="255"/>
<path fill="#FCFCFC" d="M266.5,80.6l-4.6-26.4c-10.5-57.3-13.3-6.5-27.6-10.1l-20.5,17.2c-9.1,4.3-16.5,12-20.3,22.2
	c-6,16.4-0.4,34.2,12.5,44.5c-21.1,20.1-44.9,34.6-44.9,34.6c24.1-9.2,40.8-19.6,52.3-29.9c1.2,0.6,2.4,1.1,3.6,1.5
	c20.5,7.5,43.2-3,50.7-23.5C271.4,100.5,270.7,89.8,266.5,80.6z M257.2,110.4c-5.6,15.3-22.5,23.2-37.8,17.6
	c-0.2-0.1-0.4-0.2-0.7-0.3c25.6-26.4,19.3-50.7,19.3-50.7c-1.5,15.8-13.2,32.1-27,46.2c-9.5-7.7-13.6-20.9-9.2-33.1
	c2.8-7.6,8.4-13.4,15.1-16.5l15.3-12.8c10.7,2.7,12.8-35.3,20.6,7.5l3.4,19.7C259.4,94.8,259.9,102.8,257.2,110.4z"/>
<g>
	<path fill="#FFFFFF" d="M186.6,197.8c0-2.1-0.8-3.9-2.4-5.1s-4.3-2.5-8.2-3.5c-3.9-1-6.7-2.2-8.5-3.6s-2.7-3.3-2.7-5.8
		c0-2.5,1.1-4.6,3.2-6.1s4.8-2.3,8.1-2.3c3.3,0,6,0.9,8.2,2.8s3.1,4.3,3.1,7.2l0,0.1h-1.1c0-2.5-0.9-4.7-2.8-6.3s-4.3-2.5-7.3-2.5
		c-3.1,0-5.5,0.7-7.3,2.1s-2.7,3-2.7,5s0.7,3.5,2.2,4.8s4.2,2.4,8.1,3.4c3.8,1,6.6,2.2,8.6,3.7s2.9,3.5,2.9,6.2
		c0,2.7-1.1,4.8-3.3,6.4s-5,2.3-8.3,2.3c-3.4,0-6.4-0.8-8.8-2.4s-3.7-4.1-3.6-7.6l0-0.1h1.1c0,3.1,1.1,5.3,3.4,6.7s4.9,2.1,7.9,2.1
		c3,0,5.5-0.7,7.4-2.1S186.6,200,186.6,197.8z"/>
	<path fill="#FFFFFF" d="M197,206h-1.3v-34.1h1.3V206z"/>
	<path fill="#FFFFFF" d="M231.4,202.3c-0.7,1-2.1,1.9-4.1,2.8s-4.5,1.3-7.5,1.3c-3.9,0-7.1-1.4-9.5-4.2s-3.6-6.4-3.6-10.9v-5.6
		c0-4.3,1.2-7.8,3.5-10.5s5.4-4,9.2-4c3.6,0,6.5,0.9,8.6,2.8s3.2,4.3,3.2,7.2l0,0.1h-1.1c-0.1-2.6-1.1-4.8-2.9-6.4s-4.4-2.5-7.8-2.5
		c-3.5,0-6.2,1.2-8.3,3.7s-3.2,5.6-3.2,9.5v5.6c0,4.1,1.1,7.4,3.3,9.9s5,3.8,8.6,3.8c2.5,0,4.7-0.4,6.6-1.1s3.1-1.5,3.8-2.4v-9.9
		h-10.4v-1.3h11.7V202.3z"/>
	<path fill="#FFFFFF" d="M242.1,171.9l14,32.1h0.1l14-32.1h1.9V206h-1.3v-31.9l-0.1,0l-14,31.9h-1l-13.9-31.8l-0.1,0V206h-1.3v-34.1
		H242.1z"/>
	<path fill="#FFFFFF" d="M299.8,195.8h-16.7l-3.8,10.2H278l12.8-34.1h1.5L305,206h-1.4L299.8,195.8z M283.6,194.5h15.8l-7.1-19.2
		l-0.7-1.9h-0.1l-0.6,1.9L283.6,194.5z"/>
</g>
<g>
	<path fill="#FFFFFF" d="M244.4,222L244.4,222l1.9-8.8h2.5l-3,12.8h-2.4l-2.3-8.4H241l-2.3,8.4h-2.4l-3-12.8h2.5l1.8,8.8l0.1,0
		l2.4-8.8h1.9L244.4,222z"/>
	<path fill="#FFFFFF" d="M258,220.4h-5.3v3.6h6.2v2h-8.8v-12.8h8.7v2h-6.2v3.2h5.3V220.4z"/>
	<path fill="#FFFFFF" d="M260.5,226v-12.8h4.3c1.5,0,2.7,0.3,3.5,0.9s1.3,1.5,1.3,2.6c0,0.6-0.2,1.1-0.5,1.6c-0.3,0.5-0.8,0.8-1.4,1
		c0.8,0.2,1.3,0.5,1.7,1.1s0.6,1.2,0.6,1.9c0,1.2-0.4,2.2-1.2,2.8c-0.8,0.6-2,0.9-3.4,0.9H260.5z M263.1,218.6h1.8
		c0.7,0,1.2-0.1,1.6-0.4s0.6-0.7,0.6-1.2c0-0.6-0.2-1-0.6-1.3s-0.9-0.4-1.7-0.4h-1.8V218.6z M263.1,220.3v3.7h2.4
		c0.7,0,1.2-0.1,1.6-0.4s0.5-0.7,0.5-1.3c0-0.6-0.2-1.1-0.5-1.4c-0.3-0.3-0.8-0.5-1.4-0.5H263.1z"/>
	<path fill="#FFFFFF" d="M278.9,223.2h-4.5l-0.9,2.8H271l4.4-12.8h2.6l4.4,12.8h-2.6L278.9,223.2z M275.1,221.2h3.2l-1.6-5h-0.1
		L275.1,221.2z"/>
	<path fill="#FFFFFF" d="M286.2,221.4v4.6h-2.6v-12.8h5.1c1.5,0,2.6,0.4,3.5,1.1s1.3,1.7,1.3,3s-0.4,2.2-1.3,3s-2,1.1-3.5,1.1H286.2
		z M286.2,219.4h2.5c0.7,0,1.3-0.2,1.6-0.6c0.4-0.4,0.6-0.9,0.6-1.5c0-0.6-0.2-1.1-0.5-1.5c-0.4-0.4-0.9-0.6-1.6-0.6h-2.5V219.4z"/>
	<path fill="#FFFFFF" d="M297.9,221.4v4.6h-2.6v-12.8h5.1c1.5,0,2.6,0.4,3.5,1.1s1.3,1.7,1.3,3s-0.4,2.2-1.3,3s-2,1.1-3.5,1.1H297.9
		z M297.9,219.4h2.5c0.7,0,1.3-0.2,1.6-0.6c0.4-0.4,0.6-0.9,0.6-1.5c0-0.6-0.2-1.1-0.5-1.5c-0.4-0.4-0.9-0.6-1.6-0.6h-2.5V219.4z"/>
</g>
</svg>
