<?xml version="1.0" encoding="utf-8"?>
<!-- Generator: Adobe Illustrator 18.0.0, SVG Export Plug-In . SVG Version: 6.00 Build 0)  -->
<!DOCTYPE svg PUBLIC "-//W3C//DTD SVG 1.1 Tiny//EN" "http://www.w3.org/Graphics/SVG/1.1/DTD/svg11-tiny.dtd">
<svg version="1.1" baseProfile="tiny"
	 id="svg2" xmlns:cc="http://creativecommons.org/ns#" xmlns:rdf="http://www.w3.org/1999/02/22-rdf-syntax-ns#" xmlns:dc="http://purl.org/dc/elements/1.1/" xmlns:svg="http://www.w3.org/2000/svg"
	 xmlns="http://www.w3.org/2000/svg" xmlns:xlink="http://www.w3.org/1999/xlink" x="0px" y="0px" viewBox="35.1 2 214.9 139"
	 xml:space="preserve">
<g>
	<path id="path14" fill="#394D54" d="M153.7,47.9h19.6v20h9.9c4.6,0,9.3-0.8,13.6-2.3c2.1-0.7,4.5-1.7,6.6-3
		c-2.8-3.6-4.2-8.2-4.6-12.6c-0.6-6.1,0.7-14,4.8-18.8l2.1-2.4l2.4,2c6.2,5,11.4,11.9,12.3,19.8c7.4-2.2,16.1-1.7,22.7,2.1l2.7,1.5
		l-1.4,2.8c-5.5,10.8-17.1,14.1-28.4,13.6c-16.9,42.2-53.8,62.1-98.5,62.1c-23.1,0-44.3-8.6-56.3-29.1c-0.7-1.3-1.3-2.6-2-3.9
		c-4.1-9-5.4-18.9-4.5-28.8l0.3-3h16.7v-20h19.6V28.4h39.1V8.8h23.5L153.7,47.9"/>
	<image width="219" height="142" xlink:href="2AAC5087.png"  transform="matrix(1 0 0 1 27 -8.11)">
	</image>
</g>
</svg>
