<?xml version="1.0" encoding="utf-8"?>
<!-- Generator: Adobe Illustrator 18.0.0, SVG Export Plug-In . SVG Version: 6.00 Build 0)  -->
<!DOCTYPE svg PUBLIC "-//W3C//DTD SVG 1.1 Tiny//EN" "http://www.w3.org/Graphics/SVG/1.1/DTD/svg11-tiny.dtd">
<svg version="1.1" baseProfile="tiny" id="Capa_1" xmlns="http://www.w3.org/2000/svg" xmlns:xlink="http://www.w3.org/1999/xlink"
	 x="0px" y="0px" viewBox="0 0 255.4 350.6" xml:space="preserve">
<g>
	<image width="258" height="343" xlink:href="868EEA20.png"  transform="matrix(1 0 0 1 -1 -6.11)">
	</image>
	<g>
		<path fill="#FFC24A" d="M14.1,260.9l1.9-2.6l89.3-169.5l0.2-1.8L66.1,13c-3.3-6.2-12.6-4.6-13.7,2.3L14.1,260.9z"/>
		<g>
			<g>
				<path id="path-1_4_" fill="#FFA712" d="M15.2,258.9l1.4-2.8L105,88.4L65.7,14.1C62.5,8,54.2,9.5,53.1,16.4L15.2,258.9z"/>
			</g>
			<g>
				<image width="180" height="497" xlink:href="868EEA27.png"  transform="matrix(1 0 0 1 -29.7332 -114.0632)">
				</image>
			</g>
		</g>
		<path fill="#F4BD62" d="M134.2,142.9l29.3-30l-29.3-56c-2.8-5.3-10.6-5.3-13.3,0l-15.7,29.9v2.5L134.2,142.9z"/>
		<g>
			<g>
				<path id="path-3_4_" fill="#FFA50E" d="M133.7,141.7l28.5-29.2l-28.5-54.3c-2.7-5.2-9.3-5.7-12-0.5L106,88l-0.5,1.6L133.7,141.7
					z"/>
			</g>
			<g>
				<image width="113" height="175" xlink:href="868EEA2D.png"  transform="matrix(1 0 0 1 77.1413 10.2221)">
				</image>
			</g>
		</g>
		<polygon fill="#F6820C" points="14.1,260.9 14.9,260.1 18,258.8 132.4,144.9 133.8,141 105.3,86.6 		"/>
		<path fill="#FDE068" d="M137.9,318.4l103.5-57.7l-29.5-182c-0.9-5.7-7.9-7.9-12-3.9L14.1,260.9l102.9,57.4
			C123.4,322,131.4,322,137.9,318.4"/>
		<path fill="#FCCA3F" d="M240.4,260.2L211.1,79.6c-0.9-5.6-6.7-8-10.8-3.9L15.2,260.6L117,317.4c6.5,3.6,14.3,3.6,20.8,0
			L240.4,260.2z"/>
		<path fill="#EEAB37" d="M137.9,316.7c-6.5,3.6-14.4,3.6-20.9,0L14.9,260l-0.8,0.9l102.9,57.4c6.5,3.6,14.4,3.6,20.9,0l103.5-57.7
			l-0.3-1.6L137.9,316.7z"/>
	</g>
</g>
<g>
	<path fill="#C7C7C7" d="M320.2,267.6l1.9-2.6l89.3-169.5l0.2-1.8l-39.4-74c-3.3-6.2-12.6-4.6-13.7,2.3L320.2,267.6z"/>
	<g>
		<g>
			<path id="path-1_5_" fill="#B1B1B1" d="M321.3,265.6l1.4-2.8L411.2,95l-39.3-74.3c-3.3-6.1-11.6-4.6-12.6,2.3L321.3,265.6z"/>
		</g>
		<image width="180" height="497" xlink:href="868EEA2E.png"  transform="matrix(1 0 0 1 276.4105 -107.4114)">
		</image>
	</g>
	<path fill="#C3C3C3" d="M440.3,149.6l29.3-30l-29.3-56c-2.8-5.3-10.6-5.3-13.3,0l-15.7,29.9V96L440.3,149.6z"/>
	<g>
		<g>
			<path id="path-3_5_" fill="#AFAFAF" d="M439.8,148.3l28.5-29.2l-28.5-54.3c-2.7-5.2-9.3-5.7-12-0.5l-15.8,30.4l-0.5,1.6
				L439.8,148.3z"/>
		</g>
		<image width="113" height="175" xlink:href="868EEA2F.png"  transform="matrix(1 0 0 1 383.2849 16.8738)">
		</image>
	</g>
	<polygon fill="#989898" points="320.2,267.6 321.1,266.7 324.2,265.4 438.5,151.5 440,147.6 411.4,93.3 	"/>
	<path fill="#DBDBDB" d="M444,325l103.5-57.7l-29.5-182c-0.9-5.7-7.9-7.9-12-3.9L320.2,267.6L423.1,325
		C429.6,328.6,437.5,328.6,444,325"/>
	<path fill="#CACACA" d="M546.5,266.8L517.2,86.2c-0.9-5.6-6.7-8-10.8-3.9L321.4,267.2l101.7,56.9c6.5,3.6,14.3,3.6,20.8,0
		L546.5,266.8z"/>
	<path fill="#B2B2B2" d="M444,323.3c-6.5,3.6-14.4,3.6-20.9,0l-102-56.6l-0.8,0.9L423.1,325c6.5,3.6,14.4,3.6,20.9,0l103.5-57.7
		l-0.3-1.6L444,323.3z"/>
</g>
</svg>
