<?xml version="1.0" encoding="utf-8"?>
<!-- Generator: Adobe Illustrator 18.0.0, SVG Export Plug-In . SVG Version: 6.00 Build 0)  -->
<!DOCTYPE svg PUBLIC "-//W3C//DTD SVG 1.1 Tiny//EN" "http://www.w3.org/Graphics/SVG/1.1/DTD/svg11-tiny.dtd">
<svg version="1.1" baseProfile="tiny" id="Capa_1" xmlns:sketch="http://www.bohemiancoding.com/sketch/ns"
	 xmlns="http://www.w3.org/2000/svg" xmlns:xlink="http://www.w3.org/1999/xlink" x="0px" y="0px" viewBox="64.3 111.5 145.7 205.6"
	 xml:space="preserve">
<title>Slice 1</title>
<description>Created with Sketch (http://www.bohemiancoding.com/sketch)</description>
<title>Slice 1</title>
<description>Created with Sketch (http://www.bohemiancoding.com/sketch)</description>
<g id="Page_1_1_">
	<image width="164" height="218" xlink:href="28F0E338.png"  transform="matrix(1 0 0 1 308 105.89)">
	</image>
	<g>
		<path id="Shape_30_" fill="#E44F26" d="M335.4,293.8l-12-135.1h132.4l-12.1,135.1l-54.2,15L335.4,293.8z"/>
		<path id="Shape_29_" fill="#F1662A" d="M389.5,297.3l43.8-12.1l10.3-115.5h-54.1V297.3z"/>
		<path id="Shape_28_" fill="#EBEBEB" d="M389.5,219.8h-21.9l-1.5-17h23.4v-16.6h-0.1H348l0.4,4.4l4.1,45.7h37.1V219.8z"/>
		<path id="Shape_27_" fill="#EBEBEB" d="M389.5,262.9L389.5,262.9l-18.5-5l-1.2-13.2h-9h-7.7l2.3,26l33.9,9.4l0.1,0V262.9z"/>
		<path id="Shape_26_" fill="#010101" d="M335.7,121.9h8.4v8.3h7.7v-8.3h8.4v25.2h-8.4v-8.4h-7.7v8.4h-8.4V121.9L335.7,121.9z"/>
		<path id="Shape_25_" fill="#010101" d="M371.3,130.3h-7.4v-8.4h23.3v8.4h-7.4v16.8h-8.4L371.3,130.3L371.3,130.3L371.3,130.3z"/>
		<path id="Shape_24_" fill="#010101" d="M390.8,121.9h8.8l5.4,8.9l5.4-8.9h8.8v25.2h-8.4v-12.5l-5.8,9h-0.1l-5.8-9v12.5h-8.2
			L390.8,121.9L390.8,121.9z"/>
		<path id="Shape_23_" fill="#010101" d="M423.4,121.9h8.4v16.9h11.8v8.3h-20.3L423.4,121.9L423.4,121.9z"/>
		<path id="Shape_22_" fill="#FFFFFF" d="M389.5,219.8v16.6h20.4l-1.9,21.5l-18.5,5v17.2l34-9.4l0.2-2.8l3.9-43.6l0.4-4.5h-4.5
			H389.5z"/>
		<path id="Shape_21_" fill="#FFFFFF" d="M389.5,186.3v10.3v6.2v0h40h0.1l0.3-3.7l0.8-8.4l0.4-4.4H389.5z"/>
	</g>
</g>
<g id="Page_1_2_">
	<g id="Group_2_">
		<path id="Shape_20_" fill="#777777" d="M83,298.2L71,163.1h132.4l-12.1,135.1l-54.2,15L83,298.2z"/>
		<path id="Shape_9_" fill="#898989" d="M137.2,301.8l43.8-12.1l10.3-115.5h-54.1V301.8z"/>
		<path id="Shape_8_" fill="#EBEBEB" d="M137.2,224.3h-21.9l-1.5-17h23.4v-16.6h-0.1H95.6l0.4,4.4l4.1,45.7h37.1V224.3z"/>
		<path id="Shape_7_" fill="#EBEBEB" d="M137.2,267.3L137.2,267.3l-18.5-5l-1.2-13.2h-9h-7.7l2.3,26l33.9,9.4l0.1,0V267.3z"/>
		<path id="Shape_6_" fill="#010101" d="M83.3,126.4h8.4v8.3h7.7v-8.3h8.4v25.2h-8.4v-8.4h-7.7v8.4h-8.4V126.4L83.3,126.4z"/>
		<path id="Shape_5_" fill="#010101" d="M118.9,134.7h-7.4v-8.4h23.3v8.4h-7.4v16.8h-8.4L118.9,134.7L118.9,134.7L118.9,134.7z"/>
		<path id="Shape_4_" fill="#010101" d="M138.4,126.4h8.8l5.4,8.9l5.4-8.9h8.8v25.2h-8.4v-12.5l-5.8,9h-0.1l-5.8-9v12.5h-8.2
			L138.4,126.4L138.4,126.4z"/>
		<path id="Shape_3_" fill="#010101" d="M171,126.4h8.4v16.9h11.8v8.3H171L171,126.4L171,126.4z"/>
		<path id="Shape_2_" fill="#FFFFFF" d="M137.1,224.3v16.6h20.4l-1.9,21.5l-18.5,5v17.2l34-9.4l0.2-2.8l3.9-43.6l0.4-4.5h-4.5H137.1
			z"/>
		<path id="Shape_1_" fill="#FFFFFF" d="M137.1,190.7V201v6.2v0h40h0.1l0.3-3.7l0.8-8.4l0.4-4.4H137.1z"/>
	</g>
</g>
</svg>
