<?xml version="1.0" encoding="utf-8"?>
<!-- Generator: Adobe Illustrator 18.0.0, SVG Export Plug-In . SVG Version: 6.00 Build 0)  -->
<!DOCTYPE svg PUBLIC "-//W3C//DTD SVG 1.1 Tiny//EN" "http://www.w3.org/Graphics/SVG/1.1/DTD/svg11-tiny.dtd">
<svg version="1.1" baseProfile="tiny" id="Layer_1" xmlns="http://www.w3.org/2000/svg" xmlns:xlink="http://www.w3.org/1999/xlink"
	 x="0px" y="0px" viewBox="0 0 148 90.6" xml:space="preserve">
<g>
	<g>
		<path fill="#699F63" d="M73.1,90.6c-0.5,0-1-0.1-1.4-0.4l-4.5-2.6c-0.7-0.4-0.3-0.5-0.1-0.6c0.9-0.3,1.1-0.4,2-0.9
			c0.1-0.1,0.2,0,0.3,0l3.4,2c0.1,0.1,0.3,0.1,0.4,0l13.4-7.7c0.1-0.1,0.2-0.2,0.2-0.4V64.7c0-0.2-0.1-0.3-0.2-0.4l-13.4-7.7
			c-0.1-0.1-0.3-0.1-0.4,0l-13.4,7.7c-0.1,0.1-0.2,0.2-0.2,0.4v15.4c0,0.1,0.1,0.3,0.2,0.4l3.7,2.1c2,1,3.2-0.2,3.2-1.4V66
			c0-0.2,0.2-0.4,0.4-0.4h1.7c0.2,0,0.4,0.2,0.4,0.4v15.2c0,2.7-1.4,4.2-4,4.2c-0.8,0-1.4,0-3.1-0.8l-3.5-2C57.5,82,57,81.1,57,80.1
			V64.7c0-1,0.5-1.9,1.4-2.4l13.4-7.7c0.8-0.5,2-0.5,2.8,0l13.4,7.7c0.9,0.5,1.4,1.4,1.4,2.4v15.4c0,1-0.5,1.9-1.4,2.4l-13.4,7.7
			C74.1,90.5,73.6,90.6,73.1,90.6z"/>
		<path fill="#699F63" d="M77.3,80c-5.8,0-7.1-2.7-7.1-4.9c0-0.2,0.2-0.4,0.4-0.4h1.7c0.2,0,0.4,0.1,0.4,0.3c0.3,1.8,1,2.6,4.6,2.6
			c2.8,0,4-0.6,4-2.1c0-0.9-0.3-1.5-4.7-1.9c-3.7-0.4-5.9-1.2-5.9-4.1c0-2.7,2.3-4.3,6.1-4.3c4.3,0,6.4,1.5,6.7,4.7
			c0,0.1,0,0.2-0.1,0.3c-0.1,0.1-0.2,0.1-0.3,0.1h-1.7c-0.2,0-0.3-0.1-0.4-0.3c-0.4-1.9-1.4-2.4-4.2-2.4c-3.1,0-3.4,1.1-3.4,1.9
			c0,1,0.4,1.3,4.6,1.8c4.1,0.5,6.1,1.3,6.1,4.2C83.9,78.3,81.5,80,77.3,80z"/>
	</g>
	<g>
		<path fill="#699F63" d="M96.5,63.8c0,1.4-1.2,2.6-2.6,2.6c-1.4,0-2.6-1.1-2.6-2.6c0-1.5,1.2-2.6,2.6-2.6
			C95.3,61.3,96.5,62.4,96.5,63.8z M91.8,63.8c0,1.2,1,2.2,2.2,2.2c1.2,0,2.2-1,2.2-2.2c0-1.2-1-2.2-2.2-2.2
			C92.8,61.7,91.8,62.6,91.8,63.8z M93,62.4h1c0.3,0,1,0,1,0.8c0,0.5-0.3,0.6-0.5,0.7c0.4,0,0.4,0.3,0.5,0.7c0,0.2,0.1,0.6,0.1,0.8
			h-0.6c0-0.1-0.1-0.9-0.1-0.9c0-0.2-0.1-0.2-0.3-0.2h-0.5v1.2H93V62.4z M93.5,63.6H94c0.4,0,0.4-0.3,0.4-0.4c0-0.4-0.3-0.4-0.4-0.4
			h-0.5V63.6z"/>
	</g>
	<path fill-rule="evenodd" fill="#333333" d="M31.8,30.3c0-0.6-0.3-1.2-0.9-1.5l-14.2-8.2c-0.2-0.1-0.5-0.2-0.8-0.2c0,0-0.1,0-0.1,0
		c-0.3,0-0.5,0.1-0.8,0.2L0.9,28.8C0.3,29.1,0,29.7,0,30.3l0,22c0,0.3,0.2,0.6,0.4,0.7c0.3,0.2,0.6,0.2,0.8,0l8.4-4.8
		c0.5-0.3,0.9-0.9,0.9-1.5V36.4c0-0.6,0.3-1.2,0.9-1.5l3.6-2.1c0.3-0.2,0.6-0.2,0.9-0.2c0.3,0,0.6,0.1,0.9,0.2l3.6,2.1
		c0.5,0.3,0.9,0.9,0.9,1.5v10.3c0,0.6,0.3,1.2,0.9,1.5l8.4,4.8c0.3,0.2,0.6,0.2,0.9,0c0.3-0.1,0.4-0.4,0.4-0.7L31.8,30.3z"/>
	<path fill-rule="evenodd" fill="#333333" d="M99.9,0.1c-0.3-0.1-0.6-0.1-0.9,0c-0.3,0.2-0.4,0.4-0.4,0.7v21.7
		c0,0.2-0.1,0.4-0.3,0.5c-0.2,0.1-0.4,0.1-0.6,0l-3.5-2c-0.5-0.3-1.2-0.3-1.7,0l-14.2,8.2c-0.5,0.3-0.9,0.9-0.9,1.5v16.4
		c0,0.6,0.3,1.2,0.9,1.5l14.2,8.2c0.5,0.3,1.2,0.3,1.7,0l14.2-8.2c0.5-0.3,0.9-0.9,0.9-1.5V6.3c0-0.6-0.3-1.2-0.9-1.5L99.9,0.1z
		 M98.6,41.7c0,0.2-0.1,0.3-0.2,0.4l-4.9,2.8c-0.1,0.1-0.3,0.1-0.4,0l-4.9-2.8C88.1,42,88,41.9,88,41.7v-5.6c0-0.2,0.1-0.3,0.2-0.4
		l4.9-2.8c0.1-0.1,0.3-0.1,0.4,0l4.9,2.8c0.1,0.1,0.2,0.2,0.2,0.4V41.7z"/>
	<g>
		<path fill-rule="evenodd" fill="#333333" d="M147.1,36c0.5-0.3,0.9-0.9,0.9-1.5v-4c0-0.6-0.3-1.2-0.9-1.5L133,20.9
			c-0.5-0.3-1.2-0.3-1.7,0L117.2,29c-0.5,0.3-0.9,0.9-0.9,1.5v16.4c0,0.6,0.3,1.2,0.9,1.5l14.1,8c0.5,0.3,1.2,0.3,1.7,0l8.5-4.7
			c0.3-0.2,0.4-0.4,0.4-0.7c0-0.3-0.2-0.6-0.4-0.7L127.2,42c-0.3-0.2-0.4-0.4-0.4-0.7v-5.1c0-0.3,0.2-0.6,0.4-0.7l4.4-2.6
			c0.3-0.2,0.6-0.2,0.9,0l4.4,2.6c0.3,0.2,0.4,0.4,0.4,0.7v4c0,0.3,0.2,0.6,0.4,0.7c0.3,0.2,0.6,0.2,0.9,0L147.1,36z"/>
		<path fill-rule="evenodd" fill="#699F63" d="M132,35.2c0.1-0.1,0.2-0.1,0.3,0l2.7,1.6c0.1,0.1,0.2,0.2,0.2,0.3v3.1
			c0,0.1-0.1,0.2-0.2,0.3l-2.7,1.6c-0.1,0.1-0.2,0.1-0.3,0l-2.7-1.6c-0.1-0.1-0.2-0.2-0.2-0.3V37c0-0.1,0.1-0.2,0.2-0.3L132,35.2z"
			/>
	</g>
	<image width="33" height="41" xlink:href="1C6EE856.png"  transform="matrix(1 0 0 1 38.6942 16.983)">
	</image>
</g>
</svg>
