<?xml version="1.0" encoding="utf-8"?>
<!-- Generator: Adobe Illustrator 18.0.0, SVG Export Plug-In . SVG Version: 6.00 Build 0)  -->
<!DOCTYPE svg PUBLIC "-//W3C//DTD SVG 1.1 Tiny//EN" "http://www.w3.org/Graphics/SVG/1.1/DTD/svg11-tiny.dtd">
<svg version="1.1" baseProfile="tiny" id="Capa_1" xmlns="http://www.w3.org/2000/svg" xmlns:xlink="http://www.w3.org/1999/xlink"
	 x="0px" y="0px" viewBox="725.9 171.5 401.1 316.4" xml:space="preserve">
<g>
	<g id="Layer_x0020_3">
		<g>
			<path d="M865.1,389.6c0.4-3,0.2-3.4,2.5-2.9l0.6,0c1.7,0.1,3.9-0.3,5.2-0.9c2.8-1.3,4.5-3.5,1.7-2.9c-6.3,1.3-6.7-0.8-6.7-0.8
				c6.7-9.9,9.5-22.5,7-25.5c-6.6-8.4-17.9-4.4-18.1-4.3l-0.1,0c-1.2-0.3-2.6-0.4-4.2-0.4c-2.9,0-5,0.7-6.7,2
				c0,0-20.3-8.3-19.3,10.5c0.2,4,5.7,30.3,12.4,22.4c2.4-2.9,4.8-5.4,4.8-5.4c1.2,0.8,2.5,1.2,4,1l0.1-0.1c0,0.4,0,0.7,0,1.1
				c-1.7,1.9-1.2,2.2-4.6,2.9c-3.4,0.7-1.4,2-0.1,2.3c1.6,0.4,5.3,1,7.8-2.5l-0.1,0.4c0.7,0.5,0.6,3.8,0.7,6.2
				c0.1,2.4,0.3,4.6,0.7,5.9c0.5,1.3,1.1,4.7,5.5,3.7C862,401.5,864.9,400.3,865.1,389.6"/>
			<path d="M856.8,405.6c-2.3,0-3.8-0.9-4.7-1.8c-1.4-1.3-1.9-2.9-2.2-3.8c0-0.1-0.1-0.2-0.1-0.3c-0.6-1.6-0.8-3.9-0.9-6.8
				c0-0.4,0-0.8,0-1.2c-1.8,0.5-3.9,0.6-6,0c-1.1-0.3-2.1-0.8-2.8-1.4c-2.1,1.4-4.1,1-4.9,0.7c-2.1-0.7-5.2-2.8-8.4-13.3
				c-1.7-5.6-2.7-11.3-2.8-13.2c-0.3-6.2,1.4-10.7,5.1-13.3c3-2.1,7.1-2.8,12.2-2c1.9,0.3,3.6,0.8,4.7,1.2c2.1-1.1,4.5-1.7,7.1-1.7
				c1.4,0,2.7,0.1,4,0.3c1.5-0.4,4-1,6.9-0.9c5.8,0.1,10.6,2.3,13.9,6.6c2.4,3,1.5,8.7,0.4,12.9c-1.1,4.1-2.8,8.5-5,12.5
				c0.4-0.1,0.7-0.1,1.2-0.2c3.8-0.8,4.9,1.8,5,2.3c1.2,3.5-3.4,5.9-4.8,6.6c-1.9,0.9-4.5,1.2-6.4,1.2c-0.2,5.6-1,9.2-2.7,11.6
				c-1.9,2.7-4.4,3.4-6.7,3.9C858.2,405.5,857.5,405.6,856.8,405.6z M853.3,384c1.7,1.4,1.8,3.7,1.9,7.3c0,0.4,0,0.9,0,1.3
				c0,1.1,0.2,3.9,0.5,4.9c0.1,0.2,0.1,0.4,0.2,0.6c0.1,0.3,0.4,1.1,0.5,1.2c0.1,0,0.4,0.1,1.2-0.1c1.7-0.4,2.3-0.7,2.8-1.4
				c0.6-0.9,1.4-3.1,1.6-8.3l3.1,0.1l-3.1-0.4c0-0.2,0-0.4,0.1-0.5c0.2-1.9,0.4-3.5,1.9-4.6c0.5-0.3,1-0.5,1.5-0.6
				c-0.1-0.3-0.2-0.6-0.2-0.7l-0.3-1.3l0.7-1.1c2.8-4.1,5.1-9.1,6.4-13.8c1.3-4.7,1.1-7.4,0.8-8c-2-2.6-4.9-4-8.6-4.1
				c-2.8-0.1-5.1,0.6-5.7,0.8l-0.2,0.1l-1.2,0.2l-0.6-0.1c-1.1-0.2-2.3-0.4-3.6-0.4c-1.9,0-3.5,0.4-4.7,1.4l-1.4,1.1l-1.7-0.7
				c-2.2-0.9-9.1-2.9-12.5-0.4c-1.8,1.3-2.6,3.9-2.4,7.9c0.1,1.3,1,6.4,2.5,11.3c1.8,6,3.4,8.5,4.2,9.3c0,0,0.1-0.1,0.1-0.1
				c2.5-3,4.8-5.4,4.9-5.5l1.8-1.9l2.2,1.5c0.3,0.2,0.7,0.4,1.1,0.5l5.1-4.4l-0.8,7.8c0,0,0,0.1,0,0.3l0.2,1.5l-0.7,0.8l1,0.5
				L853.3,384z"/>
		</g>
		<g>
			<path fill="#336791" d="M875.1,382.9c-6.3,1.3-6.7-0.8-6.7-0.8c6.7-9.9,9.5-22.5,7-25.5c-6.6-8.4-17.9-4.4-18.1-4.3l-0.1,0
				c-1.2-0.3-2.6-0.4-4.2-0.4c-2.9,0-5,0.7-6.7,2c0,0-20.3-8.3-19.3,10.5c0.2,4,5.7,30.3,12.4,22.4c2.4-2.9,4.8-5.4,4.8-5.4
				c1.2,0.8,2.5,1.2,4,1l0.1-0.1c0,0.4,0,0.7,0,1.1c-1.7,1.9-1.2,2.2-4.6,2.9c-3.4,0.7-1.4,2-0.1,2.3c1.6,0.4,5.3,1,7.8-2.5
				l-0.1,0.4c0.7,0.5,1.1,3.5,1.1,6.1c-0.1,2.7-0.1,4.5,0.4,5.9s1.1,4.7,5.5,3.7c3.7-0.8,5.7-2.9,6-6.3c0.2-2.5,0.6-2.1,0.7-4.3
				l0.3-1c0.4-3.3,0.1-4.4,2.4-3.9l0.6,0c1.7,0.1,3.9-0.3,5.2-0.9C876.2,384.5,877.9,382.3,875.1,382.9L875.1,382.9z"/>
		</g>
		<g>
			<g>
				<path fill="#FFFFFF" d="M857.1,403.6c-4,0-5.3-3.2-5.7-4.4c-0.8-2.1-0.8-10-0.7-14.4c0-0.6,0.5-1,1.1-1c0.6,0,1,0.5,1,1.1
					c-0.2,7.1,0.1,12.5,0.6,13.6c0.7,1.8,1.8,3.6,5.2,2.9c3.2-0.7,4.3-1.8,4.9-4.9c0.4-2.5,1.3-9.5,1.4-10.9c0-0.6,0.5-1,1.1-1
					c0.6,0,1,0.5,1,1.1c-0.1,1.5-1,8.5-1.4,11.1c-0.7,4-2.4,5.8-6.5,6.6C858.3,403.5,857.6,403.6,857.1,403.6z"/>
			</g>
		</g>
		<g>
			<g>
				<path fill="#FFFFFF" d="M836.8,388.9c-0.4,0-0.7-0.1-1-0.2c-2.4-0.8-4.8-4.8-6.9-11.8c-1.6-5.3-2.7-10.9-2.7-12.7
					c-0.3-5.4,1.1-9.2,4.1-11.3c5.9-4.2,15.9-0.2,16.3,0c0.4,0.2,0.6,0.6,0.4,1c-0.2,0.4-0.6,0.6-1,0.4l0,0c-0.1,0-9.6-3.8-14.8-0.1
					c-2.5,1.8-3.7,5.1-3.5,9.9c0.1,1.5,1,6.9,2.7,12.3c1.9,6.2,4,10.1,5.9,10.7c0.3,0.1,1.1,0.4,2.4-1.1c2.4-2.9,4.6-5.2,4.6-5.2
					c0.3-0.3,0.8-0.3,1.1,0c0.3,0.3,0.3,0.8,0,1.1c0,0-2.2,2.3-4.6,5.1C838.8,388.5,837.7,388.9,836.8,388.9z"/>
			</g>
		</g>
		<g>
			<g>
				<path fill="#FFFFFF" d="M868.3,383.1c-0.2,0-0.4-0.1-0.6-0.2c-0.5-0.3-0.6-1-0.3-1.5c3-4.4,5.5-9.9,6.8-15
					c1.3-5,1.1-8.3,0.3-9.3c-5.8-7.5-15.9-4.3-16.8-4c0,0-0.1,0-0.1,0.1c-0.6,0.2-1.1-0.1-1.3-0.6c-0.2-0.5,0-1.1,0.4-1.3
					c0.3-0.2,3.4-1.2,7.2-1.2c5.1,0.1,9.4,2,12.3,5.7c2,2.5,0.7,8.6,0.1,11.1c-1.4,5.3-3.9,11-7.1,15.6
					C869,382.9,868.6,383.1,868.3,383.1z"/>
			</g>
		</g>
		<g>
			<g>
				<path fill="#FFFFFF" d="M868.6,387.4c-1.2,0-2.2-0.2-2.8-0.5c-0.7-0.4-0.8-0.9-0.8-1.2c-0.2-3,1.4-3.6,2.3-3.9
					c-0.1-0.2-0.3-0.3-0.4-0.5c-0.5-0.6-1.2-1.5-1.7-2.8c-0.1-0.2-0.3-0.7-0.6-1.2c-1.6-2.9-5-9-2.8-12.1c1-1.4,3-2,5.9-1.7
					c-0.4-1.2-1.4-3.3-3.2-5.4c-2.1-2.5-5.8-5.4-11.5-5.5c-2.9,0-5.3,0.8-7.1,2.7c-4,4.1-3.9,11.5-3.9,11.6c0,0.4-0.3,0.8-0.8,0.8
					c0,0,0,0,0,0c-0.4,0-0.8-0.3-0.8-0.8c0-0.3-0.2-8.1,4.3-12.7c2.1-2.1,4.9-3.2,8.3-3.1c6.3,0.1,10.3,3.3,12.6,6
					c2.5,2.9,3.7,6.1,3.8,7.2c0.1,0.9-0.6,1-0.7,1l-0.3,0c-2-0.3-4.5-0.4-5.5,0.9c-1.6,2.3,1.6,8,2.9,10.5c0.3,0.6,0.6,1.1,0.7,1.4
					c0.4,1.1,1,1.8,1.5,2.4c0.4,0.5,0.8,1,0.9,1.5c0.1,0.1,0.9,1.3,5.8,0.3c1.3-0.3,2.1,0,2.3,0.7c0.5,1.4-2.1,3-3.5,3.7
					C872.4,387,870.4,387.4,868.6,387.4z M866.6,385.5c0.2,0.2,1,0.4,2.6,0.3c1.4-0.1,3-0.4,3.9-0.8c1.1-0.5,1.8-1,2.2-1.4
					c0,0,0,0,0,0c-3.2,0.7-5.5,0.6-6.8-0.3c-0.1-0.1-0.2-0.1-0.2-0.2c-0.1,0-0.2,0.1-0.3,0.1C867.2,383.5,866.5,383.7,866.6,385.5z"
					/>
			</g>
		</g>
		<g>
			<path fill="#FFFFFF" d="M845.9,389.9C845.9,389.9,845.9,389.9,845.9,389.9c-0.8,0-1.7-0.1-2.6-0.3c-0.3-0.1-2.6-0.7-2.6-2.3
				c0-1.5,2-1.9,2.7-2c2.3-0.5,2.4-0.6,3.2-1.5c0.2-0.3,0.5-0.6,0.9-1.1c0.6-0.7,1.3-1,2.1-1c0.5,0,0.9,0.2,1.2,0.3
				c0.9,0.4,1.6,1.2,1.9,2.2c0.3,0.9,0.1,1.9-0.4,2.6C850.7,388.8,848.5,389.9,845.9,389.9z M843.4,387.4c0.1,0.1,0.3,0.1,0.4,0.1
				c0.7,0.2,1.4,0.3,2.1,0.3c1.9,0,3.5-0.8,4.7-2.4c0.2-0.2,0.1-0.6,0.1-0.8c-0.1-0.4-0.4-0.8-0.7-0.9c-0.1-0.1-0.3-0.1-0.4-0.1
				c-0.1,0-0.3,0.1-0.5,0.3c-0.3,0.4-0.6,0.7-0.8,1c-1,1.2-1.5,1.7-4.4,2.3C843.7,387.3,843.5,387.4,843.4,387.4z"/>
		</g>
		<g>
			<g>
				<path fill="#FFFFFF" d="M848.1,384.3c-0.5,0-1-0.4-1-0.9c0,0,0-0.1,0-0.1c-1.8-0.1-3.6-0.9-4.9-2.3c-1.8-1.9-2.6-4.4-2.2-7
					c0.4-2.7,0.2-5.1,0.2-6.4c0-0.4,0-0.6,0-0.8c0-0.3,0-1,2.2-2.2c0.7-0.4,2.2-1,3.9-1.2c2.8-0.3,4.7,1,5.2,3.5
					c1.4,6.6,0.1,9.5-0.8,11.6c-0.2,0.4-0.3,0.7-0.5,1.1l-0.1,0.3c-0.5,1.3-0.9,2.4-0.8,3.2c0.1,0.6-0.3,1.1-0.9,1.2
					C848.2,384.3,848.2,384.3,848.1,384.3z M842.2,367.1c0,0.1,0,0.2,0,0.3c0.1,1.4,0.2,3.9-0.2,6.8c-0.3,2,0.3,3.9,1.7,5.3
					c1,1,2.3,1.6,3.6,1.7c0.2-0.6,0.4-1.3,0.7-2l0.1-0.3c0.2-0.4,0.3-0.8,0.5-1.2c0.9-2,2-4.4,0.7-10.3c-0.3-1.4-1-1.7-1.6-1.8
					C845.9,365.1,843,366.5,842.2,367.1z"/>
			</g>
		</g>
		<g>
			<path fill="#FFFFFF" d="M846.2,366.7c0,0.3,0.5,0.9,1.1,1c0.7,0.1,1.2-0.4,1.3-0.7c0-0.3-0.5-0.5-1.1-0.6
				C846.8,366.3,846.3,366.4,846.2,366.7L846.2,366.7z"/>
			<path fill="#FFFFFF" d="M847.5,368.1c-0.1,0-0.1,0-0.2,0c-0.4-0.1-0.9-0.3-1.2-0.7c-0.1-0.2-0.3-0.4-0.3-0.7
				c0.1-0.4,0.5-0.6,1.2-0.6c0.1,0,0.3,0,0.5,0c0.8,0.1,1.5,0.5,1.4,1C848.9,367.4,848.3,368.1,847.5,368.1z M846.6,366.8
				c0.1,0.2,0.4,0.5,0.8,0.6c0.4,0.1,0.7-0.2,0.8-0.4c-0.1-0.1-0.4-0.2-0.8-0.3c-0.1,0-0.2,0-0.4,0
				C846.8,366.7,846.7,366.7,846.6,366.8z"/>
		</g>
		<g>
			<path fill="#FFFFFF" d="M866.2,366.1c0,0.3-0.5,0.9-1.1,1c-0.7,0.1-1.2-0.4-1.3-0.7c0-0.3,0.5-0.5,1.1-0.6
				S866.2,365.9,866.2,366.1L866.2,366.1z"/>
			<path fill="#FFFFFF" d="M865,367.4c-0.7,0-1.2-0.5-1.3-0.9c-0.1-0.4,0.6-0.7,1.3-0.8c0.1,0,0.3,0,0.4,0c0.6,0,1,0.2,1,0.5
				c0,0.2-0.2,0.5-0.3,0.7c-0.2,0.2-0.5,0.4-0.9,0.5C865.1,367.3,865,367.4,865,367.4z M865.4,366c-0.1,0-0.3,0-0.4,0
				c-0.7,0.1-1,0.4-1,0.4c0,0.1,0.5,0.6,1.1,0.5c0.6-0.1,1-0.7,1-0.8C866.1,366.1,865.9,366,865.4,366z"/>
		</g>
		<g>
			<path fill="#FFFFFF" d="M867.2,381.2c-0.2,0-0.4-0.1-0.6-0.2c-0.5-0.3-0.6-1-0.3-1.5c1.5-2.2,1.2-4.4,0.9-6.7c-0.1-1-0.2-2-0.2-3
				c0-1,0.2-1.8,0.3-2.6c0.1-1,0.3-1.8,0.2-2.8c0-0.6,0.4-1.1,1-1.1c0.6,0,1.1,0.4,1.1,1c0.1,1.2-0.1,2.2-0.2,3.2
				c-0.1,0.7-0.2,1.5-0.3,2.4c0,0.8,0.1,1.7,0.2,2.7c0.3,2.5,0.6,5.3-1.3,8.1C867.9,381,867.5,381.2,867.2,381.2z"/>
		</g>
		<g>
			<path fill="none" stroke="#FFFFFF" stroke-width="3" stroke-linecap="round" stroke-linejoin="round" d="M824.6,356.4"/>
		</g>
	</g>
	<g>
		<g>
			<path fill="#7B9D66" d="M928.6,363.3c-0.4,0-0.7-0.1-1-0.3l-3.2-1.9c-0.5-0.3-0.2-0.4-0.1-0.4c0.6-0.2,0.8-0.3,1.4-0.6
				c0.1,0,0.2,0,0.2,0l2.5,1.5c0.1,0,0.2,0,0.3,0l9.6-5.5c0.1,0,0.2-0.2,0.2-0.2v-11c0-0.1,0-0.2-0.2-0.3l-9.6-5.5
				c-0.1,0-0.2,0-0.3,0l-9.6,5.5c-0.1,0-0.2,0.2-0.2,0.3v11c0,0.1,0,0.2,0.2,0.2l2.6,1.5c1.4,0.7,2.3-0.1,2.3-1v-10.9
				c0-0.2,0.1-0.3,0.3-0.3h1.2c0.2,0,0.3,0.1,0.3,0.3v10.9c0,1.9-1,3-2.8,3c-0.6,0-1,0-2.2-0.6l-2.5-1.4c-0.6-0.4-1-1-1-1.8v-11
				c0-0.7,0.4-1.4,1-1.8l9.6-5.5c0.6-0.4,1.4-0.4,2,0l9.6,5.5c0.6,0.4,1,1,1,1.8v11c0,0.7-0.4,1.4-1,1.8l-9.6,5.5
				C929.2,363.2,928.9,363.3,928.6,363.3z"/>
			<path fill="#7B9D66" d="M931.5,355.7c-4.2,0-5.1-1.9-5.1-3.5c0-0.2,0.1-0.3,0.3-0.3h1.2c0.1,0,0.2,0.1,0.3,0.2
				c0.2,1.3,0.8,1.9,3.3,1.9c2,0,2.9-0.4,2.9-1.5c0-0.6-0.2-1.1-3.4-1.4c-2.6-0.2-4.2-0.8-4.2-3c0-1.9,1.6-3.1,4.3-3.1
				c3.1,0,4.6,1.1,4.8,3.4c0,0.1,0,0.2-0.1,0.2c0,0-0.1,0.1-0.2,0.1h-1.2c-0.1,0-0.2-0.1-0.3-0.2c-0.3-1.3-1-1.8-3-1.8
				c-2.2,0-2.5,0.8-2.5,1.4c0,0.7,0.3,0.9,3.3,1.3c3,0.4,4.3,1,4.3,3C936.3,354.5,934.5,355.7,931.5,355.7z"/>
		</g>
		<path fill="#363636" d="M898.9,320.1c0-0.4-0.2-0.8-0.6-1.1l-10.2-5.8c-0.2-0.1-0.4-0.2-0.6-0.2c0,0-0.1,0-0.1,0
			c-0.2,0-0.4,0.1-0.6,0.2l-10.1,5.8c-0.4,0.2-0.6,0.6-0.6,1.1l0,15.7c0,0.2,0.1,0.4,0.3,0.5c0.2,0.1,0.4,0.1,0.6,0l6-3.5
			c0.4-0.2,0.6-0.6,0.6-1.1v-7.3c0-0.4,0.2-0.8,0.6-1.1l2.6-1.5c0.2-0.1,0.4-0.2,0.6-0.2c0.2,0,0.4,0,0.6,0.2l2.6,1.5
			c0.4,0.2,0.6,0.6,0.6,1.1v7.3c0,0.4,0.2,0.8,0.6,1.1l6,3.5c0.2,0.1,0.4,0.1,0.6,0c0.2-0.1,0.3-0.3,0.3-0.5L898.9,320.1z"/>
		<path fill="#363636" d="M947.7,298.5c-0.2-0.1-0.4-0.1-0.6,0c-0.2,0.1-0.3,0.3-0.3,0.5v15.6c0,0.2-0.1,0.3-0.2,0.4
			c-0.1,0.1-0.3,0.1-0.4,0l-2.6-1.5c-0.4-0.2-0.8-0.2-1.2,0l-10.2,5.9c-0.4,0.2-0.6,0.6-0.6,1.1v11.7c0,0.4,0.2,0.8,0.6,1.1
			l10.2,5.9c0.4,0.2,0.8,0.2,1.2,0l10.2-5.9c0.4-0.2,0.6-0.6,0.6-1.1v-29.2c0-0.4-0.2-0.8-0.6-1.1L947.7,298.5z M946.8,328.3
			c0,0.1,0,0.2-0.2,0.3l-3.5,2c-0.1,0-0.2,0-0.3,0l-3.5-2c-0.1,0-0.2-0.2-0.2-0.3v-4c0-0.1,0-0.2,0.2-0.3l3.5-2c0.1,0,0.2,0,0.3,0
			l3.5,2c0.1,0,0.2,0.2,0.2,0.3V328.3z"/>
		<g>
			<path fill="#363636" d="M981.6,324.1c0.4-0.2,0.6-0.6,0.6-1.1v-2.8c0-0.4-0.2-0.8-0.6-1.1l-10.1-5.9c-0.4-0.2-0.8-0.2-1.2,0
				l-10.2,5.9c-0.4,0.2-0.6,0.6-0.6,1.1V332c0,0.4,0.2,0.8,0.6,1.1l10.1,5.7c0.4,0.2,0.8,0.2,1.2,0l6.1-3.4c0.2-0.1,0.3-0.3,0.3-0.5
				c0-0.2-0.1-0.4-0.3-0.5l-10.2-5.9c-0.2-0.1-0.3-0.3-0.3-0.5v-3.7c0-0.2,0.1-0.4,0.3-0.5l3.2-1.8c0.2-0.1,0.4-0.1,0.6,0l3.2,1.8
				c0.2,0.1,0.3,0.3,0.3,0.5v2.9c0,0.2,0.1,0.4,0.3,0.5c0.2,0.1,0.4,0.1,0.6,0L981.6,324.1z"/>
			<path fill="#7B9D66" d="M970.7,323.6c0.1,0,0.2,0,0.2,0l2,1.1c0.1,0,0.1,0.1,0.1,0.2v2.2c0,0.1,0,0.2-0.1,0.2l-2,1.1
				c-0.1,0-0.2,0-0.2,0l-2-1.1c-0.1,0-0.1-0.1-0.1-0.2v-2.2c0-0.1,0-0.2,0.1-0.2L970.7,323.6z"/>
		</g>
		<g>
			<g>
				<image width="24" height="27" id="XMLID_1_" xlink:href="FEB60F10.png"  transform="matrix(1 0 0 1 903 312.89)">
				</image>
			</g>
			<image width="24" height="27" xlink:href="FEB60F11.png"  transform="matrix(1 0 0 1 903 312.89)">
			</image>
			<image width="24" height="29" xlink:href="FEB60F12.png"  transform="matrix(1 0 0 1 903 310.89)">
			</image>
		</g>
	</g>
	<g>
		<g>
			<polygon fill="#3A5EA3" points="1025.8,396.4 1009.2,400.9 992.6,396.4 988.8,354.9 1029.6,354.9 			"/>
			<polygon fill="#739DD1" points="1009.2,358.2 1009.2,397.3 1009.2,397.3 1022.7,393.7 1025.7,358.2 			"/>
			<g>
				<polygon points="999.8,348.8 999.8,346.3 1003.3,346.3 1003.3,343.6 997,343.6 997,351.3 1003.3,351.3 1003.3,348.8 				"/>
				<path d="M1009.9,346.3h2.5v-2.7h-6.3c0,0,0,1.4,0,2.7c0.8,0.8,1.3,1.2,2.5,2.5c-0.7,0-2.5,0-2.5,0v2.5h6.3v-2.5L1009.9,346.3z"
					/>
				<path d="M1018.8,346.3h2.5v-2.7h-6.3c0,0,0,1.4,0,2.7c0.8,0.8,1.3,1.2,2.5,2.5c-0.7,0-2.5,0-2.5,0v2.5h6.3v-2.5L1018.8,346.3z"
					/>
			</g>
			<g>
				<polygon fill="#FFFFFF" points="1009.1,368.6 997.3,373.6 997.6,378.5 1009.1,373.6 1021.4,368.3 1021.9,363.3 				"/>
				<image width="13" height="11" xlink:href="FEB60F13.png"  transform="matrix(1 0 0 1 997 367.89)">
				</image>
				<image width="13" height="11" xlink:href="FEB60F14.png"  transform="matrix(1 0 0 1 1009 362.89)">
				</image>
				<image width="24" height="20" xlink:href="FEB60F15.png"  transform="matrix(1 0 0 1 997 372.89)">
				</image>
				<image width="13" height="20" xlink:href="FEB60F16.png"  transform="matrix(1 0 0 1 997 372.89)">
				</image>
				<image width="26" height="6" xlink:href="FEB60F1F.png"  transform="matrix(1 0 0 1 996 362.89)">
				</image>
				<image width="14" height="6" xlink:href="FEB60F19.png"  transform="matrix(1 0 0 1 996 362.89)">
				</image>
			</g>
		</g>
	</g>
	<g>
		<image width="71" height="88" xlink:href="D0503200.png"  transform="matrix(1 0 0 1 894 202.89)">
		</image>
		<g>
			<path fill="#C75134" d="M929.8,275.4l-16.4-4.5l-3.7-41h40.2l-3.7,41L929.8,275.4z"/>
			<path fill="#CB633B" d="M943.1,268.2l3.1-35h-16.4v38.7L943.1,268.2z"/>
			<path fill="#EBEBEB" d="M929.9,253.4v-5h-6.7l-0.5-5.1h7.1v-5l0,0h-12.6l0.1,1.4l1.2,13.8H929.9z"/>
			<path fill="#EBEBEB" d="M929.9,261.4L929.9,261.4l-5.6-1.5l-0.4-4h-2.7h-2.4l0.7,7.9l10.3,2.9h0V261.4L929.9,261.4z"/>
			<path d="M913.5,218.7h2.6v2.5h2.4v-2.5h2.6v7.6h-2.6v-2.6h-2.4v2.6h-2.6V218.7L913.5,218.7z"/>
			<path d="M924.3,221.3h-2.2v-2.5h7.1v2.5h-2.2v5.1h-2.6L924.3,221.3L924.3,221.3z"/>
			<path d="M930.2,218.7h2.7l1.6,2.7l1.6-2.7h2.7v7.6h-2.6v-3.8l-1.8,2.7h0l-1.8-2.7v3.8h-2.5V218.7L930.2,218.7z"/>
			<path d="M940.1,218.7h2.6v5.1h3.6v2.5h-6.1V218.7L940.1,218.7z"/>
			<path fill="#FFFFFF" d="M941.5,248.4h-1.4h-10.3v5h6.2l-0.6,6.5l-5.6,1.5v5.2l10.3-2.9l0.1-0.8l1.2-13.2L941.5,248.4z"/>
			<path fill="#FFFFFF" d="M942.4,238.2h-12.6v3.1v1.9l0,0H942l0,0l0,0l0.1-1.1l0.2-2.6L942.4,238.2z"/>
		</g>
	</g>
	<g>
		<image width="212" height="205" xlink:href="D0503201.png"  transform="matrix(1 0 0 1 824 226.89)">
		</image>
		<g>
			<path fill="#FFFFFF" d="M965.3,254.1c26.3,13.1,44.5,40.4,44.5,71.7c0,2.5-0.1,4.9-0.3,7.3h10c0.2-2.4,0.3-4.8,0.3-7.3
				c0-37-22.4-68.9-54.4-82.7V254.1z"/>
			<path fill="#FFFFFF" d="M969.5,395.3c-11.7,6.7-25.3,10.6-39.8,10.6c-14.3,0-27.8-3.8-39.4-10.4v11.2c11.9,5.8,25.3,9.1,39.4,9.1
				c14.3,0,27.8-3.3,39.8-9.3V395.3z"/>
			<path fill="#FFFFFF" d="M849.9,333.1c-0.2-2.4-0.3-4.8-0.3-7.3c0-31.4,18.1-58.6,44.5-71.7v-11c-32,13.8-54.4,45.7-54.4,82.7
				c0,2.5,0.1,4.9,0.3,7.3H849.9z"/>
		</g>
	</g>
</g>
</svg>
