<?xml version="1.0" encoding="utf-8"?>
<!-- Generator: Adobe Illustrator 18.0.0, SVG Export Plug-In . SVG Version: 6.00 Build 0)  -->
<!DOCTYPE svg PUBLIC "-//W3C//DTD SVG 1.1//EN" "http://www.w3.org/Graphics/SVG/1.1/DTD/svg11.dtd">
<svg version="1.1" id="Capa_1" xmlns="http://www.w3.org/2000/svg" xmlns:xlink="http://www.w3.org/1999/xlink" x="0px" y="0px"
	 viewBox="0 0 1237.1 576.9" enable-background="new 0 0 1237.1 576.9" xml:space="preserve">
<image overflow="visible" width="4052" height="81" xlink:href="FEB60F38.png"  transform="matrix(0.24 0 0 0.24 112.1497 548.0455)">
</image>
<image overflow="visible" opacity="0.3" width="4143" height="89" xlink:href="FEB60F3B.png"  transform="matrix(0.24 0 0 0.24 101.1761 536.4251)">
</image>
<path fill="#818080" d="M232.2,517.1V54.4c0-14,11.4-25.4,25.4-25.4h681.3c14,0,25.4,11.4,25.4,25.4v462.7H232.2z"/>
<path fill="#E6E5E4" d="M234.2,515.1V54.4c0-12.9,10.5-23.4,23.4-23.4h681.3c12.9,0,23.4,10.5,23.4,23.4v460.7H234.2z"/>
<linearGradient id="SVGID_1_" gradientUnits="userSpaceOnUse" x1="300.257" y1="577.3404" x2="896.2844" y2="-18.6871">
	<stop  offset="0" style="stop-color:#030104"/>
	<stop  offset="1" style="stop-color:#333333"/>
</linearGradient>
<path fill="url(#SVGID_1_)" d="M960.4,513.2V54.4c0-11.9-9.6-21.5-21.5-21.5H257.6c-11.9,0-21.5,9.6-21.5,21.5v458.8H960.4z"/>
<g>
	<rect x="269" y="63.9" fill="#FFFFFF" width="658.5" height="418.3"/>
</g>
<g opacity="7.000000e-002">
	<path fill="#FFFFFF" d="M925.6,65.8v414.5H271V65.8H925.6L925.6,65.8z M927.5,63.9H269v418.3h658.5V63.9L927.5,63.9z"/>
</g>
<image overflow="visible" width="4052" height="81" xlink:href="FEB60F3E.png"  transform="matrix(0.24 0 0 0.24 112.1497 528.6782)">
</image>
<linearGradient id="SVGID_2_" gradientUnits="userSpaceOnUse" x1="112.1497" y1="518.9945" x2="1084.3917" y2="518.9945">
	<stop  offset="0" style="stop-color:#6E6E6E"/>
	<stop  offset="2.000000e-002" style="stop-color:#FFFFFF"/>
	<stop  offset="0.1" style="stop-color:#AAAAAA"/>
	<stop  offset="0.5" style="stop-color:#F7F6F6"/>
	<stop  offset="0.9" style="stop-color:#AAAAAA"/>
	<stop  offset="0.98" style="stop-color:#FFFFFF"/>
	<stop  offset="1" style="stop-color:#6E6E6E"/>
</linearGradient>
<rect x="112.1" y="509.3" fill="url(#SVGID_2_)" width="972.2" height="19.4"/>
<g>
	<g>
		<polygon fill="#FFFFFF" points="249.2,870.8 301.6,961.7 249.2,1052.6 144.2,1052.6 91.8,961.7 144.2,870.8 		"/>
		<polygon fill="#FFFFFF" points="85.3,777.1 137.7,868 85.3,958.9 -19.7,958.9 -72.2,868 -19.7,777.1 		"/>
		<polygon fill="#FFFFFF" points="413.7,777.1 466.1,868 413.7,958.9 308.7,958.9 256.2,868 308.7,777.1 		"/>
		<polygon fill="#FFFFFF" points="249.2,681.2 301.6,772.1 249.2,863 144.2,863 91.8,772.1 144.2,681.2 		"/>
	</g>
	<g>
		<g>
			<path fill="#7B9D66" d="M202,1013.7c-0.5,0-1-0.1-1.5-0.4l-4.7-2.8c-0.7-0.4-0.4-0.5-0.1-0.6c0.9-0.3,1.1-0.4,2.1-1
				c0.1-0.1,0.2,0,0.3,0l3.6,2.1c0.1,0.1,0.3,0.1,0.4,0l14-8.1c0.1-0.1,0.2-0.2,0.2-0.4v-16.1c0-0.2-0.1-0.3-0.2-0.4l-14-8.1
				c-0.1-0.1-0.3-0.1-0.4,0l-14,8.1c-0.1,0.1-0.2,0.2-0.2,0.4v16.1c0,0.2,0.1,0.3,0.2,0.4l3.8,2.2c2.1,1,3.3-0.2,3.3-1.4v-15.9
				c0-0.2,0.2-0.4,0.4-0.4h1.8c0.2,0,0.4,0.2,0.4,0.4v15.9c0,2.8-1.5,4.4-4.1,4.4c-0.8,0-1.4,0-3.2-0.9l-3.7-2.1
				c-0.9-0.5-1.5-1.5-1.5-2.5v-16.1c0-1,0.6-2,1.5-2.5l14-8.1c0.9-0.5,2.1-0.5,2.9,0l14,8.1c0.9,0.5,1.5,1.5,1.5,2.5v16.1
				c0,1-0.6,2-1.5,2.5l-14,8.1C203,1013.6,202.5,1013.7,202,1013.7z"/>
			<path fill="#7B9D66" d="M206.3,1002.6c-6.1,0-7.4-2.8-7.4-5.2c0-0.2,0.2-0.4,0.4-0.4h1.8c0.2,0,0.4,0.1,0.4,0.3
				c0.3,1.8,1.1,2.8,4.8,2.8c2.9,0,4.2-0.7,4.2-2.2c0-0.9-0.4-1.6-4.9-2c-3.8-0.4-6.2-1.2-6.2-4.3c0-2.8,2.4-4.5,6.4-4.5
				c4.5,0,6.7,1.6,7,4.9c0,0.1,0,0.2-0.1,0.3c-0.1,0.1-0.2,0.1-0.3,0.1h-1.8c-0.2,0-0.4-0.1-0.4-0.3c-0.4-1.9-1.5-2.6-4.4-2.6
				c-3.2,0-3.6,1.1-3.6,2c0,1,0.4,1.3,4.8,1.9c4.3,0.6,6.3,1.4,6.3,4.4C213.3,1000.8,210.7,1002.6,206.3,1002.6z"/>
		</g>
		<path fill-rule="evenodd" clip-rule="evenodd" fill="#363636" d="M158.7,950.6c0-0.6-0.3-1.2-0.9-1.6l-14.8-8.5
			c-0.3-0.1-0.5-0.2-0.8-0.2c0,0-0.1,0-0.2,0c-0.3,0-0.6,0.1-0.8,0.2l-14.8,8.5c-0.6,0.3-0.9,0.9-0.9,1.6l0,23
			c0,0.3,0.2,0.6,0.4,0.8c0.3,0.2,0.6,0.2,0.9,0l8.8-5c0.6-0.3,0.9-0.9,0.9-1.6V957c0-0.6,0.3-1.2,0.9-1.5l3.8-2.2
			c0.3-0.2,0.6-0.2,0.9-0.2c0.3,0,0.6,0.1,0.9,0.2l3.7,2.2c0.6,0.3,0.9,0.9,0.9,1.5v10.7c0,0.6,0.3,1.2,0.9,1.6l8.8,5
			c0.3,0.2,0.6,0.2,0.9,0c0.3-0.2,0.4-0.5,0.4-0.8L158.7,950.6z"/>
		<path fill-rule="evenodd" clip-rule="evenodd" fill="#363636" d="M230,919c-0.3-0.2-0.6-0.2-0.9,0c-0.3,0.2-0.4,0.5-0.4,0.8v22.7
			c0,0.2-0.1,0.4-0.3,0.5c-0.2,0.1-0.4,0.1-0.6,0l-3.7-2.1c-0.6-0.3-1.2-0.3-1.8,0l-14.8,8.6c-0.6,0.3-0.9,0.9-0.9,1.6v17.1
			c0,0.6,0.3,1.2,0.9,1.6l14.8,8.6c0.6,0.3,1.2,0.3,1.8,0l14.8-8.6c0.6-0.3,0.9-0.9,0.9-1.6v-42.7c0-0.6-0.4-1.2-0.9-1.6L230,919z
			 M228.6,962.5c0,0.2-0.1,0.3-0.2,0.4l-5.1,2.9c-0.1,0.1-0.3,0.1-0.4,0l-5.1-2.9c-0.1-0.1-0.2-0.2-0.2-0.4v-5.9
			c0-0.2,0.1-0.3,0.2-0.4l5.1-2.9c0.1-0.1,0.3-0.1,0.4,0l5.1,2.9c0.1,0.1,0.2,0.2,0.2,0.4V962.5z"/>
		<g>
			<path fill-rule="evenodd" clip-rule="evenodd" fill="#363636" d="M279.4,956.5c0.6-0.3,0.9-0.9,0.9-1.5v-4.1
				c0-0.6-0.3-1.2-0.9-1.5l-14.7-8.6c-0.6-0.3-1.2-0.3-1.8,0l-14.8,8.6c-0.6,0.3-0.9,0.9-0.9,1.6v17.1c0,0.6,0.3,1.2,0.9,1.6
				l14.7,8.4c0.5,0.3,1.2,0.3,1.8,0l8.9-5c0.3-0.2,0.5-0.5,0.5-0.8c0-0.3-0.2-0.6-0.4-0.8l-14.9-8.6c-0.3-0.2-0.4-0.5-0.4-0.8v-5.4
				c0-0.3,0.2-0.6,0.4-0.8l4.6-2.7c0.3-0.2,0.6-0.2,0.9,0l4.6,2.7c0.3,0.2,0.4,0.5,0.4,0.8v4.2c0,0.3,0.2,0.6,0.4,0.8
				c0.3,0.2,0.6,0.2,0.9,0L279.4,956.5z"/>
			<path fill-rule="evenodd" clip-rule="evenodd" fill="#7B9D66" d="M263.5,955.7c0.1-0.1,0.2-0.1,0.3,0l2.8,1.6
				c0.1,0.1,0.2,0.2,0.2,0.3v3.3c0,0.1-0.1,0.2-0.2,0.3l-2.8,1.6c-0.1,0.1-0.2,0.1-0.3,0l-2.8-1.6c-0.1-0.1-0.2-0.2-0.2-0.3v-3.3
				c0-0.1,0.1-0.2,0.2-0.3L263.5,955.7z"/>
		</g>
		<g>
			<defs>
				<path id="XMLID_143_" d="M183.5,940.8c-0.6-0.3-1.2-0.3-1.8,0l-14.7,8.5c-0.6,0.3-0.9,0.9-0.9,1.5v17c0,0.6,0.3,1.2,0.9,1.5
					l14.7,8.5c0.6,0.3,1.2,0.3,1.8,0l14.7-8.5c0.6-0.3,0.9-0.9,0.9-1.5v-17c0-0.6-0.3-1.2-0.9-1.5L183.5,940.8z"/>
			</defs>
			<linearGradient id="XMLID_7_" gradientUnits="userSpaceOnUse" x1="188.6094" y1="947.1401" x2="175.291" y2="974.3098">
				<stop  offset="0" style="stop-color:#5D8645"/>
				<stop  offset="0.3302" style="stop-color:#5E8A44"/>
				<stop  offset="0.6379" style="stop-color:#639541"/>
				<stop  offset="0.9359" style="stop-color:#6CA83C"/>
				<stop  offset="1" style="stop-color:#6EAD3B"/>
			</linearGradient>
			<use xlink:href="#XMLID_143_"  overflow="visible" fill-rule="evenodd" clip-rule="evenodd" fill="url(#XMLID_7_)"/>
			<clipPath id="XMLID_8_">
				<use xlink:href="#XMLID_143_"  overflow="visible"/>
			</clipPath>
			<g clip-path="url(#XMLID_8_)">
				<path fill="none" d="M181.7,940.8l-14.5,8.5c-0.6,0.3-0.7,0.9-0.7,1.5v17c0,0.4,0,0.8,0.2,1.1l16.5-28.4
					C182.7,940.5,182.1,940.6,181.7,940.8z"/>
				<path fill="none" d="M183.1,978.1c0.1,0,0.3-0.1,0.4-0.2l14.9-8.5c0.6-0.3,1-0.9,1-1.5v-17c0-0.5-0.3-0.9-0.6-1.2L183.1,978.1z"
					/>
				<linearGradient id="SVGID_3_" gradientUnits="userSpaceOnUse" x1="180.3716" y1="961.3592" x2="217.7423" y2="933.7477">
					<stop  offset="0.1376" style="stop-color:#5D8645"/>
					<stop  offset="0.4016" style="stop-color:#709F4C"/>
					<stop  offset="0.7129" style="stop-color:#83B652"/>
					<stop  offset="0.9081" style="stop-color:#8ABF54"/>
				</linearGradient>
				<path fill="url(#SVGID_3_)" d="M198.3,949.3l-14.8-8.5c-0.1-0.1-0.3-0.1-0.5-0.2L166.4,969c0.1,0.2,0.3,0.3,0.5,0.4l14.8,8.5
					c0.4,0.2,0.9,0.3,1.4,0.2l15.6-28.5C198.6,949.5,198.4,949.4,198.3,949.3z"/>
			</g>
			<g clip-path="url(#XMLID_8_)">
				<path fill="none" d="M199.4,967.9v-17c0-0.6-0.5-1.2-1-1.5l-14.8-8.5c-0.2-0.1-0.4-0.2-0.6-0.2l16.3,27.7
					C199.3,968.2,199.4,968,199.4,967.9z"/>
				<path fill="none" d="M167.2,949.3c-0.6,0.3-0.7,0.9-0.7,1.5v17c0,0.6,0.2,1.2,0.7,1.5l14.7,8.5c0.3,0.2,0.7,0.3,1.1,0.2
					L167.2,949.3L167.2,949.3z"/>
				<linearGradient id="SVGID_4_" gradientUnits="userSpaceOnUse" x1="165.573" y1="937.735" x2="199.6581" y2="937.735">
					<stop  offset="9.191646e-002" style="stop-color:#8ABF54"/>
					<stop  offset="0.2871" style="stop-color:#83B652"/>
					<stop  offset="0.5984" style="stop-color:#709F4C"/>
					<stop  offset="0.8624" style="stop-color:#5D8645"/>
				</linearGradient>
				<polygon fill="url(#SVGID_4_)" points="181.2,937.7 181,937.8 181.3,937.8 				"/>
				<linearGradient id="SVGID_5_" gradientUnits="userSpaceOnUse" x1="165.573" y1="959.3641" x2="199.6581" y2="959.3641">
					<stop  offset="9.191646e-002" style="stop-color:#8ABF54"/>
					<stop  offset="0.2871" style="stop-color:#83B652"/>
					<stop  offset="0.5984" style="stop-color:#709F4C"/>
					<stop  offset="0.8624" style="stop-color:#5D8645"/>
				</linearGradient>
				<path fill="url(#SVGID_5_)" d="M198.3,969.4c0.4-0.2,0.8-0.7,0.9-1.1l-16.2-27.7c-0.4-0.1-0.9,0-1.3,0.2l-14.7,8.5l15.9,28.9
					c0.2,0,0.4-0.1,0.7-0.2L198.3,969.4z"/>
				<linearGradient id="SVGID_6_" gradientUnits="userSpaceOnUse" x1="165.573" y1="969.0948" x2="199.6581" y2="969.0948">
					<stop  offset="9.191646e-002" style="stop-color:#8ABF54"/>
					<stop  offset="0.2871" style="stop-color:#83B652"/>
					<stop  offset="0.5984" style="stop-color:#709F4C"/>
					<stop  offset="0.8624" style="stop-color:#5D8645"/>
				</linearGradient>
				<polygon fill="url(#SVGID_6_)" points="199.7,969.1 199.6,969 199.6,969.2 				"/>
				<linearGradient id="SVGID_7_" gradientUnits="userSpaceOnUse" x1="165.7096" y1="973.4927" x2="199.5255" y2="973.4927">
					<stop  offset="9.191646e-002" style="stop-color:#8ABF54"/>
					<stop  offset="0.2871" style="stop-color:#83B652"/>
					<stop  offset="0.5984" style="stop-color:#709F4C"/>
					<stop  offset="0.8624" style="stop-color:#5D8645"/>
				</linearGradient>
				<path fill="url(#SVGID_7_)" d="M198.3,969.4l-14.8,8.5c-0.2,0.1-0.4,0.2-0.7,0.2l0.2,0.5l16.3-9.5V969l-0.3-0.7
					C199,968.8,198.7,969.2,198.3,969.4z"/>
				<linearGradient id="SVGID_8_" gradientUnits="userSpaceOnUse" x1="204.558" y1="946.3346" x2="183.5364" y2="989.2185">
					<stop  offset="0" style="stop-color:#5D8645"/>
					<stop  offset="0.3302" style="stop-color:#5E8A44"/>
					<stop  offset="0.6379" style="stop-color:#639541"/>
					<stop  offset="0.9359" style="stop-color:#6CA83C"/>
					<stop  offset="1" style="stop-color:#6EAD3B"/>
				</linearGradient>
				<path fill="url(#SVGID_8_)" d="M198.3,969.4l-14.8,8.5c-0.2,0.1-0.4,0.2-0.7,0.2l0.2,0.5l16.3-9.5V969l-0.3-0.7
					C199,968.8,198.7,969.2,198.3,969.4z"/>
			</g>
		</g>
	</g>
	<g>
		<path fill="#C75134" d="M361.1,941.8L320,930.4l-9.2-102.7h100.6l-9.2,102.7L361.1,941.8z M361.1,941.8"/>
		<path fill="#CB633B" d="M394.5,923.8l7.8-87.7h-41.1v97L394.5,923.8z M394.5,923.8"/>
		<path fill="#EBEBEB" d="M361.2,886.8v-12.6h-16.7l-1.2-12.9h17.8v-12.6h0h-31.5l0.3,3.4l3.1,34.7H361.2z M361.2,886.8"/>
		<path fill="#EBEBEB" d="M361.2,906.9L361.2,906.9l-14.1-3.8l-0.9-10h-6.8h-5.8l1.8,19.8l25.8,7.2l0.1,0V906.9z M361.2,906.9"/>
		<path d="M320.3,799.8h6.4v6.3h5.9v-6.3h6.4V819h-6.4v-6.4h-5.9v6.4h-6.4V799.8L320.3,799.8z M320.3,799.8"/>
		<path d="M347.3,806.2h-5.6v-6.3h17.7v6.3h-5.6V819h-6.4V806.2L347.3,806.2z M347.3,806.2"/>
		<path d="M362.2,799.8h6.7l4.1,6.7l4.1-6.7h6.7V819h-6.4v-9.5l-4.4,6.8h-0.1l-4.4-6.8v9.5h-6.3V799.8L362.2,799.8z M362.2,799.8"/>
		<path d="M386.9,799.8h6.4v12.8h9v6.3h-15.4V799.8L386.9,799.8z M386.9,799.8"/>
		<path fill="#FFFFFF" d="M390.4,874.2H387h-25.9v12.6h15.5l-1.5,16.3l-14,3.8V920l25.8-7.2l0.2-2.1l3-33.2L390.4,874.2z
			 M390.4,874.2"/>
		<path fill="#FFFFFF" d="M392.7,848.7h-31.5v7.8v4.7v0h30.4l0,0h0l0.3-2.8l0.6-6.4L392.7,848.7z M392.7,848.7"/>
	</g>
	<g>
		<path fill="#7B9D66" d="M199.1,823.4c-1.4,0-2.8-0.4-4-1.1l-12.6-7.5c-1.9-1.1-1-1.4-0.3-1.6c2.5-0.9,3-1.1,5.7-2.6
			c0.3-0.2,0.7-0.1,0.9,0.1l9.7,5.8c0.4,0.2,0.8,0.2,1.2,0l37.9-21.9c0.4-0.2,0.6-0.6,0.6-1v-43.7c0-0.4-0.2-0.8-0.6-1L199.7,727
			c-0.3-0.2-0.8-0.2-1.2,0l-37.9,21.9c-0.4,0.2-0.6,0.6-0.6,1v43.7c0,0.4,0.2,0.8,0.6,1l10.4,6c5.6,2.8,9.1-0.5,9.1-3.8v-43.2
			c0-0.6,0.5-1.1,1.1-1.1h4.8c0.6,0,1.1,0.5,1.1,1.1v43.2c0,7.5-4.1,11.8-11.2,11.8c-2.2,0-3.9,0-8.7-2.4l-9.9-5.7
			c-2.5-1.4-4-4.1-4-6.9v-43.7c0-2.8,1.5-5.5,4-6.9l37.9-21.9c2.4-1.4,5.6-1.4,8,0L241,743c2.5,1.4,4,4.1,4,6.9v43.7
			c0,2.8-1.5,5.5-4,6.9l-37.9,21.9C201.9,823.1,200.5,823.4,199.1,823.4z"/>
		<path fill="#7B9D66" d="M210.8,793.3c-16.6,0-20-7.6-20-14c0-0.6,0.5-1.1,1.1-1.1h4.9c0.5,0,1,0.4,1.1,0.9c0.7,5,2.9,7.5,13,7.5
			c8,0,11.4-1.8,11.4-6c0-2.4-1-4.3-13.4-5.5c-10.4-1-16.8-3.3-16.8-11.6c0-7.6,6.4-12.2,17.2-12.2c12.1,0,18.1,4.2,18.9,13.2
			c0,0.3-0.1,0.6-0.3,0.8c-0.2,0.2-0.5,0.3-0.8,0.3h-4.9c-0.5,0-1-0.4-1.1-0.9c-1.2-5.2-4-6.9-11.8-6.9c-8.7,0-9.7,3-9.7,5.3
			c0,2.8,1.2,3.6,13,5.1c11.6,1.5,17.2,3.7,17.2,11.9C229.7,788.6,222.8,793.3,210.8,793.3z"/>
	</g>
	<g>
		<g>
			<polygon fill="#3A5EA3" points="74.4,934.6 32.8,945.9 -8.8,934.6 -18.4,830.6 84,830.6 			"/>
			<polygon fill="#739DD1" points="32.8,839 32.8,936.9 32.9,936.9 66.6,927.9 74.3,839 			"/>
			<g>
				<polygon points="9.2,815.3 9.2,809.1 18.2,809.1 18.2,802.3 2.4,802.3 2.4,821.5 18.2,821.5 18.2,815.3 				"/>
				<path d="M34.5,809.1h6.3v-6.8H25c0,0,0,3.4,0,6.8c2.1,2.1,3.2,3.1,6.3,6.2c-1.8,0-6.3,0-6.3,0v6.2h15.8v-6.2L34.5,809.1z"/>
				<path d="M56.9,809.1h6.3v-6.8H47.4c0,0,0,3.4,0,6.8c2.1,2.1,3.2,3.1,6.3,6.2c-1.8,0-6.3,0-6.3,0v6.2h15.8v-6.2L56.9,809.1z"/>
			</g>
			<g>
				<polygon fill="#FFFFFF" points="32.7,865 3,877.4 3.9,889.7 32.7,877.4 63.4,864.3 64.7,851.7 				"/>
				<linearGradient id="SVGID_9_" gradientUnits="userSpaceOnUse" x1="17.8518" y1="889.7292" x2="17.8518" y2="865.0371">
					<stop  offset="0.3865" style="stop-color:#D8D9DD;stop-opacity:0"/>
					<stop  offset="1" style="stop-color:#D8D9DD"/>
				</linearGradient>
				<polygon fill="url(#SVGID_9_)" points="3,877.4 3.9,889.7 32.7,877.4 32.7,865 				"/>
				<linearGradient id="SVGID_10_" gradientUnits="userSpaceOnUse" x1="48.7031" y1="877.4137" x2="48.7031" y2="851.7476">
					<stop  offset="0.3865" style="stop-color:#D8D9DD;stop-opacity:0"/>
					<stop  offset="1" style="stop-color:#D8D9DD"/>
				</linearGradient>
				<polygon fill="url(#SVGID_10_)" points="64.7,851.7 32.7,865 32.7,877.4 63.4,864.3 				"/>
				<linearGradient id="SVGID_11_" gradientUnits="userSpaceOnUse" x1="3.0015" y1="900.7423" x2="62.3054" y2="900.7423">
					<stop  offset="0" style="stop-color:#F0F0EF"/>
					<stop  offset="1" style="stop-color:#FFFFFF"/>
				</linearGradient>
				<polygon fill="url(#SVGID_11_)" points="3,877.4 4,889.7 48.2,889.9 47.2,906.2 32.7,910.3 18.7,906.8 17.8,896.6 4.8,896.6 
					6.5,916.3 32.8,924 58.9,916.4 62.3,877.4 				"/>
				<g opacity="5.000000e-002">
					<polygon points="32.7,877.4 3,877.4 3.9,889.7 32.7,889.8 					"/>
					<polygon points="32.7,910.3 32.6,910.3 18.6,906.8 17.8,896.6 4.8,896.6 6.5,916.3 32.7,924 					"/>
				</g>
				<linearGradient id="SVGID_12_" gradientUnits="userSpaceOnUse" x1="0.273" y1="858.0308" x2="64.6582" y2="858.0308">
					<stop  offset="0" style="stop-color:#F0F0EF"/>
					<stop  offset="1" style="stop-color:#FFFFFF"/>
				</linearGradient>
				<polygon fill="url(#SVGID_12_)" points="0.3,851.7 64.7,851.7 63.4,864.3 1.8,864.3 				"/>
				<polygon opacity="5.000000e-002" points="32.7,851.7 0.3,851.7 1.8,864.3 32.7,864.3 				"/>
			</g>
		</g>
	</g>
</g>
<g>
	<g>
		<path fill="#7B9D66" d="M599.9,369.7c-0.9,0-1.8-0.2-2.5-0.7l-8-4.7c-1.2-0.7-0.6-0.9-0.2-1c1.6-0.6,1.9-0.7,3.6-1.6
			c0.2-0.1,0.4-0.1,0.6,0l6.2,3.7c0.2,0.1,0.5,0.1,0.7,0l24-13.9c0.2-0.1,0.4-0.4,0.4-0.6v-27.7c0-0.3-0.1-0.5-0.4-0.7l-24-13.8
			c-0.2-0.1-0.5-0.1-0.7,0l-24,13.8c-0.2,0.1-0.4,0.4-0.4,0.7v27.7c0,0.3,0.1,0.5,0.4,0.6l6.6,3.8c3.6,1.8,5.8-0.3,5.8-2.4v-27.4
			c0-0.4,0.3-0.7,0.7-0.7h3c0.4,0,0.7,0.3,0.7,0.7v27.4c0,4.8-2.6,7.5-7.1,7.5c-1.4,0-2.5,0-5.5-1.5l-6.3-3.6
			c-1.6-0.9-2.5-2.6-2.5-4.4v-27.7c0-1.8,1-3.5,2.5-4.4l24-13.9c1.5-0.9,3.5-0.9,5,0l24,13.9c1.6,0.9,2.5,2.6,2.5,4.4v27.7
			c0,1.8-1,3.5-2.5,4.4l-24,13.9C601.6,369.5,600.8,369.7,599.9,369.7z"/>
		<path fill="#7B9D66" d="M607.3,350.6c-10.5,0-12.7-4.8-12.7-8.9c0-0.4,0.3-0.7,0.7-0.7h3.1c0.3,0,0.6,0.2,0.7,0.6
			c0.5,3.2,1.9,4.8,8.2,4.8c5.1,0,7.2-1.1,7.2-3.8c0-1.5-0.6-2.7-8.5-3.5c-6.6-0.6-10.6-2.1-10.6-7.4c0-4.8,4.1-7.7,10.9-7.7
			c7.7,0,11.5,2.7,12,8.4c0,0.2-0.1,0.4-0.2,0.5c-0.1,0.1-0.3,0.2-0.5,0.2h-3.1c-0.3,0-0.6-0.2-0.7-0.5c-0.7-3.3-2.6-4.4-7.5-4.4
			c-5.5,0-6.2,1.9-6.2,3.4c0,1.7,0.8,2.3,8.2,3.2c7.4,1,10.9,2.4,10.9,7.5C619.3,347.6,614.9,350.6,607.3,350.6z"/>
	</g>
	<path fill-rule="evenodd" clip-rule="evenodd" fill="#363636" d="M525.5,261.3c0-1.1-0.6-2.1-1.5-2.7L498.5,244
		c-0.4-0.3-0.9-0.4-1.4-0.4c0,0-0.2,0-0.3,0c-0.5,0-1,0.2-1.4,0.4L470,258.6c-0.9,0.5-1.5,1.6-1.5,2.7l0.1,39.4
		c0,0.5,0.3,1.1,0.8,1.3c0.5,0.3,1.1,0.3,1.5,0l15.1-8.7c1-0.6,1.5-1.6,1.5-2.7v-18.4c0-1.1,0.6-2.1,1.5-2.7l6.4-3.7
		c0.5-0.3,1-0.4,1.5-0.4c0.5,0,1.1,0.1,1.5,0.4l6.4,3.7c1,0.5,1.5,1.6,1.5,2.7v18.4c0,1.1,0.6,2.1,1.5,2.7l15.1,8.7
		c0.5,0.3,1.1,0.3,1.5,0c0.5-0.3,0.8-0.8,0.8-1.3L525.5,261.3z"/>
	<path fill-rule="evenodd" clip-rule="evenodd" fill="#363636" d="M648,207.1c-0.5-0.3-1.1-0.3-1.5,0c-0.5,0.3-0.8,0.8-0.8,1.3v39.1
		c0,0.4-0.2,0.7-0.5,0.9c-0.3,0.2-0.7,0.2-1.1,0l-6.4-3.7c-1-0.5-2.1-0.5-3.1,0l-25.5,14.7c-1,0.5-1.5,1.6-1.5,2.7v29.4
		c0,1.1,0.6,2.1,1.5,2.7l25.5,14.7c1,0.5,2.1,0.5,3.1,0l25.5-14.7c1-0.6,1.5-1.6,1.5-2.7v-73.3c0-1.1-0.6-2.1-1.6-2.7L648,207.1z
		 M645.6,281.9c0,0.3-0.1,0.5-0.4,0.7l-8.7,5c-0.2,0.1-0.5,0.1-0.8,0l-8.7-5c-0.2-0.1-0.4-0.4-0.4-0.7v-10.1c0-0.3,0.1-0.5,0.4-0.7
		l8.7-5c0.2-0.1,0.5-0.1,0.8,0l8.7,5c0.2,0.1,0.4,0.4,0.4,0.7V281.9z"/>
	<g>
		<path fill-rule="evenodd" clip-rule="evenodd" fill="#363636" d="M732.8,271.5c0.9-0.6,1.5-1.6,1.5-2.7v-7.1
			c0-1.1-0.6-2.1-1.5-2.7l-25.3-14.7c-1-0.6-2.1-0.6-3.1,0l-25.5,14.7c-1,0.5-1.5,1.6-1.5,2.7v29.4c0,1.1,0.6,2.1,1.6,2.7l25.3,14.4
			c0.9,0.5,2.1,0.5,3,0l15.3-8.5c0.5-0.3,0.8-0.8,0.8-1.3c0-0.6-0.3-1.1-0.8-1.3L697,282.3c-0.5-0.3-0.8-0.8-0.8-1.3v-9.2
			c0-0.5,0.3-1.1,0.8-1.3l8-4.6c0.5-0.3,1.1-0.3,1.5,0l8,4.6c0.5,0.3,0.8,0.8,0.8,1.3v7.2c0,0.6,0.3,1.1,0.8,1.3
			c0.5,0.3,1.1,0.3,1.5,0L732.8,271.5z"/>
		<path fill-rule="evenodd" clip-rule="evenodd" fill="#7B9D66" d="M705.6,270.1c0.2-0.1,0.4-0.1,0.6,0l4.9,2.8
			c0.2,0.1,0.3,0.3,0.3,0.5v5.6c0,0.2-0.1,0.4-0.3,0.5l-4.9,2.8c-0.2,0.1-0.4,0.1-0.6,0l-4.9-2.8c-0.2-0.1-0.3-0.3-0.3-0.5v-5.6
			c0-0.2,0.1-0.4,0.3-0.5L705.6,270.1z"/>
	</g>
	<g>
		<defs>
			<path id="XMLID_1_" d="M568.1,244.5c-0.9-0.5-2.1-0.5-3.1,0l-25.3,14.6c-0.9,0.5-1.5,1.6-1.5,2.6V291c0,1.1,0.6,2.1,1.5,2.6
				l25.3,14.6c0.9,0.5,2.1,0.5,3.1,0l25.3-14.6c0.9-0.5,1.5-1.6,1.5-2.6v-29.2c0-1.1-0.6-2.1-1.5-2.6L568.1,244.5z"/>
		</defs>
		<linearGradient id="XMLID_9_" gradientUnits="userSpaceOnUse" x1="576.8869" y1="255.3944" x2="554.0146" y2="302.054">
			<stop  offset="0" style="stop-color:#5D8645"/>
			<stop  offset="0.3302" style="stop-color:#5E8A44"/>
			<stop  offset="0.6379" style="stop-color:#639541"/>
			<stop  offset="0.9359" style="stop-color:#6CA83C"/>
			<stop  offset="1" style="stop-color:#6EAD3B"/>
		</linearGradient>
		<use xlink:href="#XMLID_1_"  overflow="visible" fill-rule="evenodd" clip-rule="evenodd" fill="url(#XMLID_9_)"/>
		<clipPath id="XMLID_10_">
			<use xlink:href="#XMLID_1_"  overflow="visible"/>
		</clipPath>
		<g clip-path="url(#XMLID_10_)">
			<path fill="none" d="M565,244.5l-25.2,14.6c-0.9,0.5-1.4,1.6-1.4,2.6V291c0,0.7,0.1,1.4,0.6,1.9l28.4-48.8
				C566.6,244,565.7,244.1,565,244.5z"/>
			<path fill="none" d="M567.4,308.6c0.2-0.1,0.5-0.2,0.7-0.3l25.5-14.6c0.9-0.5,1.8-1.6,1.8-2.6v-29.2c0-0.8-0.5-1.6-1.1-2.1
				L567.4,308.6z"/>
			<linearGradient id="SVGID_13_" gradientUnits="userSpaceOnUse" x1="562.7398" y1="279.8134" x2="626.918" y2="232.3951">
				<stop  offset="0.1376" style="stop-color:#5D8645"/>
				<stop  offset="0.4016" style="stop-color:#709F4C"/>
				<stop  offset="0.7129" style="stop-color:#83B652"/>
				<stop  offset="0.9081" style="stop-color:#8ABF54"/>
			</linearGradient>
			<path fill="url(#SVGID_13_)" d="M593.5,259.1l-25.4-14.6c-0.3-0.1-0.5-0.2-0.8-0.3L538.8,293c0.2,0.3,0.5,0.5,0.9,0.7l25.4,14.6
				c0.7,0.4,1.6,0.5,2.4,0.3l26.7-48.9C594,259.4,593.7,259.3,593.5,259.1z"/>
		</g>
		<g clip-path="url(#XMLID_10_)">
			<path fill="none" d="M595.4,291v-29.2c0-1.1-0.8-2.1-1.8-2.6l-25.5-14.6c-0.3-0.2-0.6-0.3-1-0.3l28,47.5
				C595.2,291.5,595.4,291.3,595.4,291z"/>
			<path fill="none" d="M539.9,259.1c-0.9,0.5-1.4,1.6-1.4,2.6V291c0,1.1,0.5,2.1,1.4,2.6l25.3,14.6c0.6,0.3,1.2,0.5,1.9,0.4
				L539.9,259.1L539.9,259.1z"/>
			<linearGradient id="SVGID_14_" gradientUnits="userSpaceOnUse" x1="537.3254" y1="239.2426" x2="595.8612" y2="239.2426">
				<stop  offset="9.191646e-002" style="stop-color:#8ABF54"/>
				<stop  offset="0.2871" style="stop-color:#83B652"/>
				<stop  offset="0.5984" style="stop-color:#709F4C"/>
				<stop  offset="0.8624" style="stop-color:#5D8645"/>
			</linearGradient>
			<polygon fill="url(#SVGID_14_)" points="564.2,239.1 563.9,239.3 564.3,239.3 			"/>
			<linearGradient id="SVGID_15_" gradientUnits="userSpaceOnUse" x1="537.3254" y1="276.3872" x2="595.8612" y2="276.3872">
				<stop  offset="9.191646e-002" style="stop-color:#8ABF54"/>
				<stop  offset="0.2871" style="stop-color:#83B652"/>
				<stop  offset="0.5984" style="stop-color:#709F4C"/>
				<stop  offset="0.8624" style="stop-color:#5D8645"/>
			</linearGradient>
			<path fill="url(#SVGID_15_)" d="M593.5,293.7c0.7-0.4,1.3-1.1,1.5-1.9l-27.8-47.5c-0.7-0.1-1.5,0-2.2,0.3L539.8,259l27.2,49.6
				c0.4-0.1,0.8-0.2,1.1-0.4L593.5,293.7z"/>
			<linearGradient id="SVGID_16_" gradientUnits="userSpaceOnUse" x1="537.3254" y1="293.098" x2="595.8612" y2="293.098">
				<stop  offset="9.191646e-002" style="stop-color:#8ABF54"/>
				<stop  offset="0.2871" style="stop-color:#83B652"/>
				<stop  offset="0.5984" style="stop-color:#709F4C"/>
				<stop  offset="0.8624" style="stop-color:#5D8645"/>
			</linearGradient>
			<polygon fill="url(#SVGID_16_)" points="595.9,293.2 595.7,292.9 595.7,293.3 			"/>
			<linearGradient id="SVGID_17_" gradientUnits="userSpaceOnUse" x1="537.6001" y1="300.6509" x2="595.5948" y2="300.6509">
				<stop  offset="9.191646e-002" style="stop-color:#8ABF54"/>
				<stop  offset="0.2871" style="stop-color:#83B652"/>
				<stop  offset="0.5984" style="stop-color:#709F4C"/>
				<stop  offset="0.8624" style="stop-color:#5D8645"/>
			</linearGradient>
			<path fill="url(#SVGID_17_)" d="M593.5,293.7l-25.3,14.6c-0.3,0.2-0.7,0.3-1.1,0.4l0.4,0.9l28-16.3v-0.4l-0.6-1.2
				C594.7,292.5,594.2,293.2,593.5,293.7z"/>
			<linearGradient id="SVGID_18_" gradientUnits="userSpaceOnUse" x1="604.2568" y1="254.011" x2="568.1556" y2="327.6573">
				<stop  offset="0" style="stop-color:#5D8645"/>
				<stop  offset="0.3302" style="stop-color:#5E8A44"/>
				<stop  offset="0.6379" style="stop-color:#639541"/>
				<stop  offset="0.9359" style="stop-color:#6CA83C"/>
				<stop  offset="1" style="stop-color:#6EAD3B"/>
			</linearGradient>
			<path fill="url(#SVGID_18_)" d="M593.5,293.7l-25.3,14.6c-0.3,0.2-0.7,0.3-1.1,0.4l0.4,0.9l28-16.3v-0.4l-0.6-1.2
				C594.7,292.5,594.2,293.2,593.5,293.7z"/>
		</g>
	</g>
</g>
<g>
	<path fill="#7B9D66" d="M677.4,944.8c-1.4,0-2.8-0.4-4-1.1l-12.6-7.5c-1.9-1.1-1-1.4-0.3-1.6c2.5-0.9,3-1.1,5.7-2.6
		c0.3-0.2,0.7-0.1,0.9,0.1l9.7,5.8c0.4,0.2,0.8,0.2,1.2,0l37.9-21.9c0.4-0.2,0.6-0.6,0.6-1v-43.7c0-0.4-0.2-0.8-0.6-1L678,848.3
		c-0.3-0.2-0.8-0.2-1.2,0L639,870.2c-0.4,0.2-0.6,0.6-0.6,1v43.7c0,0.4,0.2,0.8,0.6,1l10.4,6c5.6,2.8,9.1-0.5,9.1-3.8v-43.2
		c0-0.6,0.5-1.1,1.1-1.1h4.8c0.6,0,1.1,0.5,1.1,1.1v43.2c0,7.5-4.1,11.8-11.2,11.8c-2.2,0-3.9,0-8.7-2.4l-9.9-5.7
		c-2.5-1.4-4-4.1-4-6.9v-43.7c0-2.8,1.5-5.5,4-6.9l37.9-21.9c2.4-1.4,5.6-1.4,8,0l37.9,21.9c2.5,1.4,4,4.1,4,6.9v43.7
		c0,2.8-1.5,5.5-4,6.9l-37.9,21.9C680.2,944.4,678.8,944.8,677.4,944.8z"/>
	<path fill="#7B9D66" d="M689.1,914.6c-16.6,0-20-7.6-20-14c0-0.6,0.5-1.1,1.1-1.1h4.9c0.5,0,1,0.4,1.1,0.9c0.7,5,2.9,7.5,13,7.5
		c8,0,11.4-1.8,11.4-6c0-2.4-1-4.3-13.4-5.5c-10.4-1-16.8-3.3-16.8-11.6c0-7.6,6.4-12.2,17.2-12.2c12.1,0,18.1,4.2,18.9,13.2
		c0,0.3-0.1,0.6-0.3,0.8c-0.2,0.2-0.5,0.3-0.8,0.3h-4.9c-0.5,0-1-0.4-1.1-0.9c-1.2-5.2-4-6.9-11.8-6.9c-8.7,0-9.7,3-9.7,5.3
		c0,2.8,1.2,3.6,13,5.1c11.6,1.5,17.2,3.7,17.2,11.9C708,909.9,701.1,914.6,689.1,914.6z"/>
</g>
<g>
	<path fill="#C75134" d="M342.6,353.5l-41.1-11.4l-9.2-102.7H393l-9.2,102.7L342.6,353.5z M342.6,353.5"/>
	<path fill="#CB633B" d="M375.9,335.5l7.8-87.7h-41.1v97L375.9,335.5z M375.9,335.5"/>
	<path fill="#EBEBEB" d="M342.7,298.5v-12.6H326l-1.2-12.9h17.8v-12.6h0h-31.5l0.3,3.4l3.1,34.7H342.7z M342.7,298.5"/>
	<path fill="#EBEBEB" d="M342.7,318.6L342.7,318.6l-14.1-3.8l-0.9-10h-6.8H315l1.8,19.8l25.8,7.2l0.1,0V318.6z M342.7,318.6"/>
	<path d="M301.7,211.5h6.4v6.3h5.9v-6.3h6.4v19.1H314v-6.4h-5.9v6.4h-6.4V211.5L301.7,211.5z M301.7,211.5"/>
	<path d="M328.8,217.9h-5.6v-6.3h17.7v6.3h-5.6v12.8h-6.4V217.9L328.8,217.9z M328.8,217.9"/>
	<path d="M343.6,211.5h6.7l4.1,6.7l4.1-6.7h6.7v19.1h-6.4v-9.5l-4.4,6.8h-0.1l-4.4-6.8v9.5h-6.3V211.5L343.6,211.5z M343.6,211.5"/>
	<path d="M368.4,211.5h6.4v12.8h9v6.3h-15.4V211.5L368.4,211.5z M368.4,211.5"/>
	<path fill="#FFFFFF" d="M371.9,285.9h-3.4h-25.9v12.6h15.5l-1.5,16.3l-14,3.8v13.1l25.8-7.2l0.2-2.1l3-33.2L371.9,285.9z
		 M371.9,285.9"/>
	<path fill="#FFFFFF" d="M374.2,260.4h-31.5v7.8v4.7v0H373l0,0h0l0.3-2.8l0.6-6.4L374.2,260.4z M374.2,260.4"/>
</g>
<g>
	<g>
		<polygon fill="#3A5EA3" points="901.9,337 860.3,348.2 818.7,337 809.1,232.9 911.5,232.9 		"/>
		<polygon fill="#739DD1" points="860.3,241.3 860.3,339.2 860.4,339.2 894.1,330.2 901.8,241.3 		"/>
		<g>
			<polygon points="836.7,217.6 836.7,211.4 845.7,211.4 845.7,204.6 829.9,204.6 829.9,223.8 845.7,223.8 845.7,217.6 			"/>
			<path d="M862,211.4h6.3v-6.8h-15.8c0,0,0,3.4,0,6.8c2.1,2.1,3.2,3.1,6.3,6.2c-1.8,0-6.3,0-6.3,0v6.2h15.8v-6.2L862,211.4z"/>
			<path d="M884.4,211.4h6.3v-6.8h-15.8c0,0,0,3.4,0,6.8c2.1,2.1,3.2,3.1,6.3,6.2c-1.8,0-6.3,0-6.3,0v6.2h15.8v-6.2L884.4,211.4z"/>
		</g>
		<g>
			<polygon fill="#FFFFFF" points="860.2,267.3 830.5,279.8 831.4,292 860.2,279.7 890.9,266.6 892.2,254.1 			"/>
			<linearGradient id="SVGID_19_" gradientUnits="userSpaceOnUse" x1="845.3484" y1="292.0352" x2="845.3484" y2="267.3431">
				<stop  offset="0.3865" style="stop-color:#D8D9DD;stop-opacity:0"/>
				<stop  offset="1" style="stop-color:#D8D9DD"/>
			</linearGradient>
			<polygon fill="url(#SVGID_19_)" points="830.5,279.8 831.4,292 860.2,279.7 860.2,267.3 			"/>
			<linearGradient id="SVGID_20_" gradientUnits="userSpaceOnUse" x1="876.1996" y1="279.7197" x2="876.1996" y2="254.0536">
				<stop  offset="0.3865" style="stop-color:#D8D9DD;stop-opacity:0"/>
				<stop  offset="1" style="stop-color:#D8D9DD"/>
			</linearGradient>
			<polygon fill="url(#SVGID_20_)" points="892.2,254.1 860.2,267.3 860.2,279.7 890.9,266.6 			"/>
			<linearGradient id="SVGID_21_" gradientUnits="userSpaceOnUse" x1="830.498" y1="303.0483" x2="889.8019" y2="303.0483">
				<stop  offset="0" style="stop-color:#F0F0EF"/>
				<stop  offset="1" style="stop-color:#FFFFFF"/>
			</linearGradient>
			<polygon fill="url(#SVGID_21_)" points="830.5,279.8 831.5,292 875.7,292.2 874.7,308.6 860.2,312.6 846.2,309.1 845.3,299 
				832.3,299 834,318.6 860.3,326.3 886.4,318.7 889.8,279.8 			"/>
			<g opacity="5.000000e-002">
				<polygon points="860.2,279.8 830.5,279.8 831.4,292 860.2,292.1 				"/>
				<polygon points="860.2,312.6 860.1,312.6 846.1,309.1 845.3,299 832.3,299 834,318.6 860.2,326.3 				"/>
			</g>
			<linearGradient id="SVGID_22_" gradientUnits="userSpaceOnUse" x1="827.7695" y1="260.3368" x2="892.1548" y2="260.3368">
				<stop  offset="0" style="stop-color:#F0F0EF"/>
				<stop  offset="1" style="stop-color:#FFFFFF"/>
			</linearGradient>
			<polygon fill="url(#SVGID_22_)" points="827.8,254.1 892.2,254.1 890.9,266.6 829.3,266.6 			"/>
			<polygon opacity="5.000000e-002" points="860.2,254.1 827.8,254.1 829.3,266.6 860.2,266.6 			"/>
		</g>
	</g>
</g>
</svg>
