<?xml version="1.0" encoding="utf-8"?>
<!-- Generator: Adobe Illustrator 18.0.0, SVG Export Plug-In . SVG Version: 6.00 Build 0)  -->
<!DOCTYPE svg PUBLIC "-//W3C//DTD SVG 1.1//EN" "http://www.w3.org/Graphics/SVG/1.1/DTD/svg11.dtd">
<svg version="1.1" id="Capa_1" xmlns="http://www.w3.org/2000/svg" xmlns:xlink="http://www.w3.org/1999/xlink" x="0px" y="0px"
	 viewBox="0 0 90.4 85.4" enable-background="new 0 0 90.4 85.4" xml:space="preserve">
<g>
	<path fill="#C6C6C5" d="M48.4,16L21.6,31.4v30.9l26.8,15.5l26.8-15.5V31.4L48.4,16z M67.8,39.7c0,2.8-1.6,3-2.7,3
		c-1.1,0-2.6-0.6-2.6-3.1c0-2.8-0.7-3.6-3.4-3.6L40,35.7c-2.4,0-3.4,1-3.5,3.7c-0.1,3,1.5,4.3,3.3,4.4l17.9,0.3
		c7.9,0.1,9.9,5.2,9.8,10c-0.1,5.6-2.8,9.1-12.3,8.9l-16.6-0.3c-6.8-0.1-7.8-4.4-7.8-8.5c0-2.3,1.1-3.3,2.7-3.2
		c1.6,0,2.6,1.1,2.6,3.1c0,2.8,0.5,3.6,3.1,3.6l19.5,0.3c2.1,0,3.4-1,3.5-4c0-2.8-1.2-4.8-3.3-4.9l-17.9-0.3
		c-7.4-0.1-9.9-4.2-9.8-9.5c0.1-5.3,2.5-8.8,12.3-8.6L59.8,31C66.9,31.1,67.9,35.4,67.8,39.7z"/>
	<g>
		<path fill="#C6C6C5" d="M45.1,85.4C20.2,85.4,0,70.6,0,52.4c0-4.6,1.4-9.7,3.7-13.7c0.6-1,1.6-1,2.2,0c0.6,1,0.6,2.7,0,3.8
			c-1.7,3-2.8,6.7-2.8,9.9C3.1,65.5,20.3,80,45.1,80C70,80,87.3,65.5,87.3,52.4c0-3.6-1.3-7.3-3.6-10.5c-0.7-0.9-0.8-2.6-0.3-3.7
			c0.5-1.2,1.5-1.4,2.1-0.4c3.1,4.2,4.8,9.4,4.8,14.7C90.4,70.6,70.1,85.4,45.1,85.4z"/>
	</g>
	<g opacity="0.29">
		<path fill="#030104" d="M62.3,54.1c0-2.8-1.2-4.8-3.3-4.9L48.4,49v8.9l10.4,0.2C60.9,58.1,62.2,57.1,62.3,54.1z"/>
		<path fill="#030104" d="M48.4,16v14.9L59.8,31c7.1,0.1,8.1,4.4,8,8.7c0,2.8-1.6,3-2.7,3c-1.1,0-2.6-0.6-2.6-3.1
			c0-2.8-0.7-3.6-3.4-3.6l-10.7-0.2V44l9.3,0.2c7.9,0.1,9.9,5.2,9.8,10c-0.1,5.6-2.8,9.1-12.3,8.9L48.4,63v14.9l26.8-15.5V31.4
			L48.4,16z"/>
	</g>
	<path fill="#C6C6C5" d="M25,23.1c0.3,0.7,0.8,1.2,1.3,1.6c0.6,0.4,1.3,0.6,2.1,0.6v5.1c-1.2,0-2.5-0.2-3.7-0.7
		c-1.1-0.5-2.3-1.3-3.1-2.3c-0.9-0.9-1.5-2-2-3.1l-0.7-0.1l0.1,5h-5.3l-0.2-18.6c0.6-0.4,1.5-0.6,2.7-0.8s2.3-0.3,3.4-0.3
		c1.9,0,3.5,0.3,4.8,0.9s2.3,1.4,3,2.5c0.7,1.1,1,2.4,1,3.8c0,1.3-0.3,2.6-0.9,3.7C27,21.6,26.1,22.4,25,23.1z M18.9,19.3
		c0.3,0.2,0.6,0.2,1,0.2c0.5,0,1-0.1,1.5-0.3s0.9-0.5,1.2-0.9c0.4-0.4,0.5-0.8,0.5-1.3c0-0.4-0.1-0.8-0.3-1.2s-0.6-0.7-0.9-1
		c-0.4-0.2-0.8-0.3-1.3-0.3c-0.3,0-0.6,0-1,0.1c-0.3,0.1-0.6,0.2-0.8,0.3L18.9,19.3z"/>
	<g>
		<polygon fill="#C6C6C5" points="17.5,34.2 6.9,28 6.9,12.8 20.1,5.2 33.3,12.8 33.3,23 38.1,20.2 38.1,10.4 20.1,0 2,10.4 2,31.2 
			17.5,40.2 		"/>
	</g>
</g>
</svg>
