<?xml version="1.0" encoding="utf-8"?>
<!-- Generator: Adobe Illustrator 18.0.0, SVG Export Plug-In . SVG Version: 6.00 Build 0)  -->
<!DOCTYPE svg PUBLIC "-//W3C//DTD SVG 1.1//EN" "http://www.w3.org/Graphics/SVG/1.1/DTD/svg11.dtd">
<svg version="1.1" id="Capa_1" xmlns="http://www.w3.org/2000/svg" xmlns:xlink="http://www.w3.org/1999/xlink" x="0px" y="0px"
	 viewBox="4.7 311.3 585.9 230.3" enable-background="new 4.7 311.3 585.9 230.3" xml:space="preserve">
<g>
	<g>
		<path fill="#FFFFFF" d="M73.2,492.8h30.9c17.6,0,22.6-7,22.6-17.6c0-9.4-3.9-19.1-18.7-19.1H74.7c-3.5,0-6.3-2.4-6.3-8.3
			c0-5.4,2-7.4,6.3-7.4h35.9c5,0,6.3,1.5,6.3,7c0,5,3,5.9,5,5.9s5-0.4,5-5.9c0-8.3-2-16.8-15.2-16.8H81.2c-18.1,0-22.6,7-22.6,17.2
			c0,10.2,5,18.1,18.7,18.1h33.3c3.9,0,6.3,3.9,6.3,9.4c0,5.9-2.4,7.8-6.3,7.8H74c-5,0-5.9-1.5-5.9-7c0-3.9-2-5.9-5-5.9s-5,2-5,6.3
			C58.4,484.5,60.3,492.8,73.2,492.8z"/>
		<path id="_x31__25_" fill="#FFFFFF" d="M173,468.4v-28.1h17.2c5.4,0,6.3-3,6.3-4.4c0-3-2-5.4-6.3-5.4H173v-12.8c0-4.4-2-5.9-5-5.9
			c-3,0-5,1.5-5,5.9V431c-2.4,0-3.9,1.5-3.9,3.9c0,2.4,1.5,4.4,3.9,5v28.9c0,20,11.7,23.9,30.5,23.9c5.4,0,5.9-3,5.9-5
			c0-3.9-3-5-5.9-5C178.9,483,173,482.1,173,468.4z"/>
		<path id="_x32__14_" fill="#FFFFFF" d="M245.7,451.7c-22,0-34.4,4.4-34.4,23.9c0,10.9,7,17.2,15.7,17.2h12.8c9.8,0,18.7-2,24.6-7
			v2c0,5,3,5.9,4.4,5.9c2,0,5-0.4,5-5.4v-40c0-12.2-3-17.6-14.8-17.6h-21.1c-15.7,0-26.5,3-26.5,15.2c0,5,3,5.9,5,5.9
			c3.9,0,5-2.4,5-5.9c0-3.9,3.5-5.4,17.6-5.4h19.1c5,0,6.3,1.1,6.3,5.9v5.4H245.7z M264.4,461.5c0,8.9-2.4,21.5-24.6,21.5H227
			c-2.4,0-5.9-3-5.9-7c0-13.3,5-14.8,24.6-14.8h18.7V461.5z"/>
		<path id="_x33__12_" fill="#FFFFFF" d="M344.7,492.8c13.3,0,15.2-8.3,15.2-16.1c0-4.4-2-6.3-5-6.3c-2,0-5,1.1-5,5.9
			c0,5.4-1.5,7-6.3,7h-18.1c-19.1,0-23.9-1.1-23.9-14.8v-13.3c0-13.3,5-14.8,23.9-14.8h18.1c5,0,6.3,1.5,6.3,7c0,5,3,5.9,5,5.9
			c2,0,5-0.4,5-5.9c0-8.3-2-16.8-15.2-16.8h-19.1c-22.6,0-33.9,3.9-33.9,23.9v14.1c0,20,11.3,23.9,33.9,23.9h19.1V492.8z"/>
		<path id="_x34__14_" fill="#FFFFFF" d="M432.6,489.3c0-1.5-0.4-3.5-1.5-3.9l-33.9-28.1l23.5-19.1c2-1.5,2.4-3,2.4-3.9
			c0-2.4-2.4-4.4-5-4.4c-2,0-3.5,1.1-4.4,2l-26.5,23.1v-43.1c0-5-3-5.9-5-5.9c-2,0-5,1.1-5,5.9v76.6c0,4.4,3,5.4,5,5.4
			c2.4,0,5-1.1,5-5.4v-23.9l2.4-2.4l34.4,30c0.4,1.1,2,2,3.9,2C431.1,493.9,432.6,491.3,432.6,489.3z"/>
	</g>
	<path fill="#FFFFFF" d="M90.8,387.3l-65.3,37.6v75.3l65.3,37.6l65.3-37.6v-75.3L90.8,387.3z M148.9,496.3l-58.1,33.5l-58.1-33.5
		V429l58.1-33.5l58.1,33.5V496.3z"/>
	<g>
		<path fill="#FFFFFF" d="M466.5,490h43.9c3.7,0,4.4-2.4,4.4-3.7c0-3-1.7-4.4-4.4-4.4h-43.9c-3.7,0-4.4,2.4-4.4,3.7
			C462.2,487.6,462.8,490,466.5,490z M454.8,485.6c0-2.4-1.7-6.1-4.8-6.1c-3.7,0-5.4,3.7-5.4,6.1c0,3,1.7,6.7,5.4,6.7
			C453,492.4,454.8,488.2,454.8,485.6z"/>
		<path id="_x31__26_" fill="#FFFFFF" d="M512.2,438.6c0-17.2-3-26.3-18.3-26.3h-11.1c-15.2,0-18.3,9.1-18.3,26.3v3
			c0,17.6,3,26.3,18.3,26.3H494c15.2,0,18.3-8.5,18.3-26.3V438.6z M504.8,441.7c0,14.6-1.3,18.9-11.1,18.9h-10.4
			c-10.4,0-11.5-4.4-11.5-18.9v-3c0-14.6,0.7-18.9,11.5-18.9h10.4c10.4,0,11.1,4.4,11.1,18.9V441.7z"/>
	</g>
	<g enable-background="new    ">
		<path fill="#FFFFFF" d="M226.9,388.2c0,2.9-1.4,4.3-4.3,4.3h-12.2c-2.9,0-4.3-1.4-4.3-4.3v-28.6c0-2.9,1.4-4.3,4.3-4.3h12.2
			c2.9,0,4.3,1.4,4.3,4.3V373l-1.7,1.8H211v13.5h10.9v-6.8h4.9V388.2z M221.9,370.7v-11.2H211v11.2H221.9z"/>
		<path fill="#FFFFFF" d="M256.7,384.5c0,2.3-0.8,4.2-2.3,5.7c-1.5,1.5-3.4,2.3-5.7,2.3h-13.5v-59.9h5.1v23.7c2-0.3,4-0.5,6-0.8
			c2.5-0.3,4.6-0.5,6-0.5c2.8,0,4.2,1.4,4.2,4.2V384.5z M251.6,383.7v-23.9l-11.2,0.3V388h7C250.2,388,251.6,386.6,251.6,383.7z"/>
		<path fill="#FFFFFF" d="M285.8,388.2c0,2.9-1.4,4.3-4.3,4.3h-12.2c-2.9,0-4.3-1.4-4.3-4.3v-28.6c0-2.9,1.4-4.3,4.3-4.3h12.2
			c2.9,0,4.3,1.4,4.3,4.3V373l-1.7,1.8h-14.2v13.5h10.9v-6.8h4.9V388.2z M280.8,370.7v-11.2h-10.9v11.2H280.8z"/>
		<path fill="#FFFFFF" d="M299.5,392.5h-5v-59.9h5V392.5z"/>
	</g>
</g>
<path fill="#FFFFFF" d="M139.2,120.3l-68.4,39.5v79l68.4,39.5l68.4-39.5v-79L139.2,120.3z M188.7,181.1c-0.1,7.1-4.2,7.7-6.8,7.6
	c-2.7,0-6.7-1.4-6.6-7.9c0.1-7.1-1.9-9.1-8.6-9.2l-49-0.8c-6-0.1-8.8,2.4-8.9,9.5c-0.1,7.8,3.8,11,8.5,11.1l45.7,0.8
	c20.1,0.3,25.3,13.4,25.1,25.6c-0.2,14.2-7.1,23.1-31.3,22.7l-42.3-0.7c-17.5-0.3-20-11.3-19.8-21.7c0.1-5.8,2.8-8.4,6.9-8.3
	c4,0.1,6.7,2.7,6.6,7.9c-0.1,7.1,1.2,9.1,7.9,9.2l49.7,0.9c5.4,0.1,8.8-2.4,8.9-10.2c0.1-7.1-3.1-12.3-8.5-12.4l-45.7-0.8
	c-18.8-0.3-25.3-10.8-25.1-24.3c0.2-13.6,6.4-22.5,31.3-22.1l41.6,0.7C186.4,159,188.9,170.1,188.7,181.1z"/>
<g>
	<path fill="#C6C6C5" d="M-366.1,570.7c-136.1,0-246.8-31.2-246.8-69.5c0-9.8,7.5-20.6,20-28.9c3.3-2.2,8.6-2.2,11.8,0
		c3.3,2.2,3.3,5.7,0,7.9c-9.4,6.3-15,14.1-15,21c0,27.6,94.5,58.3,230,58.3c135.8,0,230.5-30.7,230.5-58.3c0-7.6-7-15.4-19.7-22.1
		c-3.6-1.9-4.3-5.4-1.4-7.9c2.9-2.4,8.1-2.9,11.7-0.9c16.8,8.8,26.1,19.8,26.1,30.9C-118.8,539.6-229.7,570.7-366.1,570.7z"/>
</g>
<g opacity="0.29">
	<path fill="#010002" d="M174.6,217.6c0.1-7.1-3.1-12.3-8.5-12.4l-26.9-0.5v22.6l26.5,0.5C171.1,227.9,174.5,225.4,174.6,217.6z"/>
	<path fill="#010002" d="M139.2,120.3v37.9l29,0.5c18.1,0.3,20.6,11.3,20.4,22.3c-0.1,7.1-4.2,7.7-6.8,7.6c-2.7,0-6.7-1.4-6.6-7.9
		c0.1-7.1-1.9-9.1-8.6-9.2l-27.4-0.5v20.7l23.7,0.4c20.1,0.3,25.3,13.4,25.1,25.6c-0.2,14.2-7.1,23.1-31.3,22.7l-17.5-0.3v38
		l68.4-39.5v-79L139.2,120.3z"/>
</g>
<path fill="#C6C6C5" d="M235.4,145.7c0.7,1.7,1.9,2.8,3.1,3.8c1.4,0.9,3.1,1.4,4.7,1.4v11.9c-2.8,0-5.7-0.5-8.5-1.7
	c-2.6-1.2-5.2-3.1-7.1-5.2c-2.1-2.1-3.6-4.5-4.5-7.1l-1.7-0.2l0.2,11.6h-12.1l-0.5-42.9c1.4-0.9,3.6-1.4,6.2-1.9
	c2.6-0.5,5.2-0.7,7.8-0.7c4.3,0,8.1,0.7,11.1,2.1s5.2,3.3,6.9,5.7c1.7,2.6,2.4,5.5,2.4,8.8c0,3.1-0.7,5.9-2.1,8.5
	C239.9,142.1,238,144,235.4,145.7z M221.4,136.9c0.7,0.5,1.4,0.5,2.4,0.5c1.2,0,2.4-0.2,3.6-0.7c1.2-0.5,2.1-1.2,2.8-2.1
	c0.9-0.9,1.2-1.9,1.2-3.1c0-0.9-0.2-1.9-0.7-2.8s-1.4-1.7-2.1-2.4c-0.9-0.5-1.9-0.7-3.1-0.7c-0.7,0-1.4,0-2.4,0.2
	c-0.7,0.2-1.4,0.5-1.9,0.7L221.4,136.9z"/>
<g>
	<polygon fill="#C6C6C5" points="227,172.1 254.3,156.4 254.3,117.5 220.6,98 186.9,117.5 186.9,143.5 174.6,136.4 174.6,111.4 
		220.6,84.9 266.6,111.4 266.6,164.5 227,187.3 	"/>
</g>
<g>
	<path fill="#FFFFFF" d="M292.5,161.4c0,2.8-1.4,4.2-4.2,4.2h-11.9c-2.8,0-4.2-1.4-4.2-4.2v-27.9c0-2.8,1.4-4.2,4.2-4.2h11.9
		c2.8,0,4.2,1.4,4.2,4.2v13.1l-1.7,1.8H277v13.2h10.6v-6.6h4.8L292.5,161.4L292.5,161.4z M287.7,144.3v-10.9h-10.6v10.9H287.7z"/>
	<path fill="#FFFFFF" d="M321.5,157.8c0,2.2-0.8,4.1-2.2,5.6s-3.3,2.2-5.6,2.2h-13.2v-58.4h5v23.1c1.9-0.3,3.9-0.5,5.8-0.8
		c2.4-0.3,4.5-0.5,5.8-0.5c2.7,0,4.1,1.4,4.1,4.1v24.7H321.5z M316.6,157v-23.3l-10.9,0.3v27.2h6.8
		C315.2,161.2,316.6,159.8,316.6,157z"/>
	<path fill="#FFFFFF" d="M349.9,161.4c0,2.8-1.4,4.2-4.2,4.2h-11.9c-2.8,0-4.2-1.4-4.2-4.2v-27.9c0-2.8,1.4-4.2,4.2-4.2h11.9
		c2.8,0,4.2,1.4,4.2,4.2v13.1l-1.7,1.8h-13.8v13.2H345v-6.6h4.8L349.9,161.4L349.9,161.4z M345.1,144.3v-10.9h-10.6v10.9H345.1z"/>
	<path fill="#FFFFFF" d="M363.4,165.6h-4.9v-58.4h4.9V165.6z"/>
</g>
<g>
	<path id="_x31__1_" fill="#FFFFFF" d="M223.5,218.2v-20.7h12.6c4,0,4.6-2.2,4.6-3.2c0-2.2-1.5-4-4.6-4h-12.6V181
		c0-3.2-1.5-4.3-3.7-4.3s-3.7,1.1-3.7,4.3v9.8c-1.8,0-2.9,1.1-2.9,2.9s1.1,3.2,2.9,3.7v21.2c0,14.7,8.6,17.6,22.4,17.6
		c4,0,4.3-2.2,4.3-3.7c0-2.9-2.2-3.7-4.3-3.7C227.9,228.9,223.5,228.3,223.5,218.2z"/>
	<path id="_x32__1_" fill="#FFFFFF" d="M277,205.9c-16.2,0-25.3,3.2-25.3,17.6c0,8,5.1,12.6,11.5,12.6h9.4c7.2,0,13.7-1.5,18.1-5.1
		v1.5c0,3.7,2.2,4.3,3.2,4.3c1.5,0,3.7-0.3,3.7-4v-29.4c0-9-2.2-12.9-10.9-12.9h-15.5c-11.5,0-19.5,2.2-19.5,11.2
		c0,3.7,2.2,4.3,3.7,4.3c2.9,0,3.7-1.8,3.7-4.3c0-2.9,2.6-4,12.9-4h14c3.7,0,4.6,0.8,4.6,4.3v4L277,205.9L277,205.9z M290.7,213.1
		c0,6.5-1.8,15.8-18.1,15.8h-9.4c-1.8,0-4.3-2.2-4.3-5.1c0-9.8,3.7-10.9,18.1-10.9h13.7L290.7,213.1L290.7,213.1z"/>
	<path id="_x33__1_" fill="#FFFFFF" d="M349.7,236.1c9.8,0,11.2-6.1,11.2-11.8c0-3.2-1.5-4.6-3.7-4.6c-1.5,0-3.7,0.8-3.7,4.3
		c0,4-1.1,5.1-4.6,5.1h-13.3c-14,0-17.6-0.8-17.6-10.9v-9.8c0-9.8,3.7-10.9,17.6-10.9h13.3c3.7,0,4.6,1.1,4.6,5.1
		c0,3.7,2.2,4.3,3.7,4.3s3.7-0.3,3.7-4.3c0-6.1-1.5-12.3-11.2-12.3h-14c-16.6,0-24.9,2.9-24.9,17.6v10.4c0,14.7,8.3,17.6,24.9,17.6
		h14V236.1z"/>
	<path id="_x34__1_" fill="#FFFFFF" d="M414.3,233.6c0-1.1-0.3-2.6-1.1-2.9l-24.9-20.7l17.3-14c1.5-1.1,1.8-2.2,1.8-2.9
		c0-1.8-1.8-3.2-3.7-3.2c-1.5,0-2.6,0.8-3.2,1.5l-19.5,17v-31.7c0-3.7-2.2-4.3-3.7-4.3c-1.5,0-3.7,0.8-3.7,4.3V233
		c0,3.2,2.2,4,3.7,4c1.8,0,3.7-0.8,3.7-4v-17.6l1.8-1.8l25.3,22c0.3,0.8,1.5,1.5,2.9,1.5C413.2,237,414.3,235,414.3,233.6z"/>
</g>
<g>
	<path fill="#FFFFFF" d="M442,234.1h32.3c2.7,0,3.2-1.8,3.2-2.7c0-2.2-1.2-3.2-3.2-3.2H442c-2.7,0-3.2,1.8-3.2,2.7
		C438.9,232.3,439.3,234.1,442,234.1z M433.4,230.8c0-1.8-1.2-4.5-3.5-4.5c-2.7,0-4,2.7-4,4.5c0,2.2,1.2,4.9,4,4.9
		C432.1,235.7,433.4,232.7,433.4,230.8z"/>
	<path id="_x31__2_" fill="#FFFFFF" d="M475.6,196.3c0-12.6-2.2-19.3-13.4-19.3H454c-11.2,0-13.4,6.7-13.4,19.3v2.2
		c0,12.9,2.2,19.3,13.4,19.3h8.2c11.2,0,13.4-6.2,13.4-19.3L475.6,196.3L475.6,196.3z M470.2,198.5c0,10.7-1,13.9-8.2,13.9h-7.6
		c-7.6,0-8.5-3.2-8.5-13.9v-2.2c0-10.7,0.5-13.9,8.5-13.9h7.6c7.6,0,8.2,3.2,8.2,13.9V198.5z"/>
</g>
<path fill="#FFFFFF" d="M151,311.3l-46,26.5v51.4l41,24.6l0.1-22.7l-0.3-0.1l0.4-16l1.7,0.2c0.9,2.6,2.4,5,4.5,7.1
	c1.9,2.1,4.5,4,7.1,5.2c2.8,1.2,5.7,1.7,8.5,1.7v-11.9c-1.7,0-3.3-0.5-4.7-1.4c-1.2-0.9-2.4-2.1-3.1-3.8c2.6-1.7,4.5-3.6,5.9-5.9
	c1.4-2.6,2.1-5.5,2.1-8.5c0-3.3-0.7-6.2-2.4-8.8c-1.7-2.4-3.8-4.3-6.9-5.7c-3.1-1.4-6.9-2.1-11.1-2.1c-2.6,0-5.2,0.2-7.8,0.7
	c-2.6,0.5-4.7,0.9-6.2,1.9V392l-16.5-7.7v-40.4l33.7-19.5l33.7,19.5v38.9l-27.3,15.7v15.2L197,391v-53.1L151,311.3z M147.8,352.3
	c0.9-0.2,1.7-0.2,2.4-0.2c1.2,0,2.1,0.2,3.1,0.7c0.7,0.7,1.7,1.4,2.1,2.4c0.5,0.9,0.7,1.9,0.7,2.8c0,1.2-0.2,2.1-1.2,3.1
	c-0.7,0.9-1.7,1.7-2.8,2.1c-1.2,0.5-2.4,0.7-3.6,0.7c-0.9,0-1.7,0-2.4-0.5l-0.2-10.4C146.3,352.7,147.1,352.5,147.8,352.3z"/>
</svg>
