<?xml version="1.0" encoding="utf-8"?>
<!-- Generator: Adobe Illustrator 18.0.0, SVG Export Plug-In . SVG Version: 6.00 Build 0)  -->
<!DOCTYPE svg PUBLIC "-//W3C//DTD SVG 1.1//EN" "http://www.w3.org/Graphics/SVG/1.1/DTD/svg11.dtd">
<svg version="1.1" xmlns="http://www.w3.org/2000/svg" xmlns:xlink="http://www.w3.org/1999/xlink" x="0px" y="0px"
	 viewBox="0 0 540 313" enable-background="new 0 0 540 313" xml:space="preserve">
<g id="Layer_2">
	<image overflow="visible" width="502" height="10" xlink:href="861DC489.png"  transform="matrix(1 0 0 1 16 292)">
	</image>
	<image overflow="visible" opacity="0.3" width="514" height="11" xlink:href="861DC498.png"  transform="matrix(1 0 0 1 10 286)">
	</image>
</g>
<g id="Layer_1">
	<path fill="#808080" d="M78,276V37.1C78,29.9,83.9,24,91.1,24h351.8c7.2,0,13.1,5.9,13.1,13.1V276H78z"/>
	<path fill="#E5E5E5" d="M79,275V37.1C79,30.4,84.4,25,91.1,25h351.8c6.7,0,12.1,5.4,12.1,12.1V275H79z"/>
	<linearGradient id="SVGID_1_" gradientUnits="userSpaceOnUse" x1="113.1259" y1="307.1259" x2="420.8741" y2="-0.6224">
		<stop  offset="0" style="stop-color:#000000"/>
		<stop  offset="1" style="stop-color:#333333"/>
	</linearGradient>
	<path fill="url(#SVGID_1_)" d="M454,274V37.1c0-6.1-5-11.1-11.1-11.1H91.1C85,26,80,31,80,37.1V274H454z"/>
	<g>
		<rect x="97" y="42" fill="#333333" width="340" height="216"/>
	</g>
	<g opacity="7.000000e-002">
		<path fill="#FFFFFF" d="M436,43v214H98V43H436L436,43z M437,42H97v216h340V42L437,42z"/>
	</g>
	<image overflow="visible" width="502" height="10" xlink:href="861DC49B.png"  transform="matrix(1 0 0 1 16 282)">
	</image>
	<linearGradient id="SVGID_2_" gradientUnits="userSpaceOnUse" x1="16" y1="277" x2="518" y2="277">
		<stop  offset="0" style="stop-color:#6E6E6E"/>
		<stop  offset="2.000000e-002" style="stop-color:#FFFFFF"/>
		<stop  offset="0.1" style="stop-color:#AAAAAA"/>
		<stop  offset="0.5" style="stop-color:#F6F6F6"/>
		<stop  offset="0.9" style="stop-color:#AAAAAA"/>
		<stop  offset="0.98" style="stop-color:#FFFFFF"/>
		<stop  offset="1" style="stop-color:#6E6E6E"/>
	</linearGradient>
	<rect x="16" y="272" fill="url(#SVGID_2_)" width="502" height="10"/>
	<g>
		<linearGradient id="SVGID_3_" gradientUnits="userSpaceOnUse" x1="267" y1="280" x2="267" y2="272">
			<stop  offset="0" style="stop-color:#2B2B2B"/>
			<stop  offset="0.6818" style="stop-color:#FFFFFF"/>
			<stop  offset="1" style="stop-color:#B0B0B0"/>
		</linearGradient>
		<path fill="url(#SVGID_3_)" d="M303,280h-72c-1.7,0-3-1.3-3-3v-5h78v5C306,278.7,304.7,280,303,280z"/>
		<path opacity="0.5" fill="#FFFFFF" d="M306,277c0,1.7-1.3,3-3,3h-72c-1.7,0-3-1.3-3-3v-5h-1v5c0,2.2,1.8,4,4,4h72c2.2,0,4-1.8,4-4
			v-5h-1V277z"/>
		<path opacity="0.2" d="M305,272v1v1v3c0,1.1-0.9,2-2,2h-72c-1.1,0-2-0.9-2-2v-3v-1v-1h-1v5c0,1.7,1.3,3,3,3h72c1.7,0,3-1.3,3-3v-5
			H305z"/>
	</g>
	<g>
		
			<radialGradient id="path4462_1_" cx="115.7055" cy="648.9843" r="3.9027" gradientTransform="matrix(0 -0.7941 -0.7692 0 766.1987 125.8045)" gradientUnits="userSpaceOnUse">
			<stop  offset="0" style="stop-color:#5D5D5D"/>
			<stop  offset="1" style="stop-color:#070707"/>
		</radialGradient>
		<path id="path4462" fill="url(#path4462_1_)" d="M270,34c0,1.7-1.3,3-3,3c-1.7,0-3-1.3-3-3c0-1.7,1.3-3,3-3
			C268.7,31,270,32.3,270,34z"/>
		
			<linearGradient id="path4464_1_" gradientUnits="userSpaceOnUse" x1="206.4805" y1="238.1295" x2="206.4805" y2="231.7174" gradientTransform="matrix(1 0 0 -1 60.52 268.9805)">
			<stop  offset="0" style="stop-color:#1C1C1C"/>
			<stop  offset="1" style="stop-color:#3D3D3D"/>
		</linearGradient>
		<path id="path4464" fill="url(#path4464_1_)" d="M267,31c-1.7,0-3,1.3-3,3c0,1.7,1.3,3,3,3c1.7,0,3-1.3,3-3
			C270,32.3,268.7,31,267,31z M267,31.6c1.3,0,2.4,1.1,2.4,2.4c0,1.3-1.1,2.4-2.4,2.4s-2.4-1.1-2.4-2.4
			C264.6,32.7,265.7,31.6,267,31.6z"/>
		
			<radialGradient id="path4486_1_" cx="-680.1597" cy="1249.223" r="3.9014" gradientTransform="matrix(0 -0.1868 -0.209 0 527.6636 -93.6651)" gradientUnits="userSpaceOnUse">
			<stop  offset="0" style="stop-color:#959595"/>
			<stop  offset="1" style="stop-color:#070707"/>
		</radialGradient>
		<path id="path4486" fill="url(#path4486_1_)" d="M268.2,34c0,0.7-0.5,1.2-1.2,1.2c-0.7,0-1.2-0.5-1.2-1.2s0.5-1.2,1.2-1.2
			C267.7,32.8,268.2,33.3,268.2,34z"/>
	</g>
	<g>
		<path fill="#008837" d="M110.8,110.6v-9.2h-1.5V100h1.5v-0.5c0-1.5,0.3-2.9,1.2-3.7c0.7-0.7,1.7-1,2.6-1c0.7,0,1.3,0.2,1.7,0.3
			l-0.3,1.5c-0.3-0.1-0.7-0.2-1.2-0.2c-1.6,0-2.1,1.5-2.1,3.1v0.6h2.6v1.5h-2.6v9.2H110.8z"/>
		<path fill="#008837" d="M125.9,107.7c0,1.1,0,2.1,0.1,2.9h-1.7l-0.1-1.7h0c-0.5,0.9-1.6,2-3.5,2c-1.7,0-3.7-0.9-3.7-4.7V100h1.9
			v5.9c0,2,0.6,3.4,2.4,3.4c1.3,0,2.2-0.9,2.6-1.8c0.1-0.3,0.2-0.6,0.2-1V100h1.9V107.7z"/>
		<path fill="#008837" d="M129.2,102.8c0-1.1,0-2-0.1-2.9h1.7l0.1,1.8h0c0.5-1,1.8-2,3.5-2c1.5,0,3.8,0.9,3.8,4.5v6.4h-1.9v-6.1
			c0-1.7-0.6-3.1-2.5-3.1c-1.3,0-2.3,0.9-2.6,2c-0.1,0.2-0.1,0.6-0.1,0.9v6.4h-1.9V102.8z"/>
		<path fill="#008837" d="M149,110.2c-0.5,0.3-1.6,0.6-3.1,0.6c-3.2,0-5.3-2.2-5.3-5.4c0-3.3,2.2-5.7,5.7-5.7c1.1,0,2.2,0.3,2.7,0.6
			l-0.4,1.5c-0.5-0.3-1.2-0.5-2.2-0.5c-2.4,0-3.8,1.8-3.8,4c0,2.5,1.6,4,3.7,4c1.1,0,1.8-0.3,2.4-0.5L149,110.2z"/>
		<path fill="#008837" d="M153.8,96.9v3.1h2.8v1.5h-2.8v5.7c0,1.3,0.4,2.1,1.5,2.1c0.5,0,0.9-0.1,1.1-0.1l0.1,1.5
			c-0.4,0.2-1,0.3-1.7,0.3c-0.9,0-1.6-0.3-2.1-0.8c-0.6-0.6-0.7-1.5-0.7-2.8v-5.8h-1.7V100h1.7v-2.6L153.8,96.9z"/>
		<path fill="#008837" d="M160.9,97c0,0.7-0.5,1.2-1.2,1.2c-0.7,0-1.2-0.5-1.2-1.2c0-0.7,0.5-1.2,1.2-1.2
			C160.5,95.8,160.9,96.3,160.9,97z M158.8,110.6V100h1.9v10.6H158.8z"/>
		<path fill="#008837" d="M173.6,105.2c0,3.9-2.7,5.7-5.3,5.7c-2.9,0-5.1-2.1-5.1-5.5c0-3.6,2.3-5.7,5.3-5.7
			C171.5,99.7,173.6,101.9,173.6,105.2z M165.1,105.3c0,2.3,1.3,4.1,3.2,4.1c1.8,0,3.2-1.7,3.2-4.1c0-1.8-0.9-4.1-3.2-4.1
			C166.1,101.2,165.1,103.3,165.1,105.3z"/>
		<path fill="#008837" d="M176,102.8c0-1.1,0-2-0.1-2.9h1.7l0.1,1.8h0c0.5-1,1.8-2,3.5-2c1.5,0,3.8,0.9,3.8,4.5v6.4h-1.9v-6.1
			c0-1.7-0.6-3.1-2.5-3.1c-1.3,0-2.3,0.9-2.6,2c-0.1,0.2-0.1,0.6-0.1,0.9v6.4H176V102.8z"/>
		<path fill="#FFFFFF" d="M192.6,108.6c0.6,0.4,1.6,0.8,2.6,0.8c1.4,0,2.1-0.7,2.1-1.6c0-0.9-0.6-1.4-2-2c-1.9-0.7-2.8-1.7-2.8-3
			c0-1.7,1.4-3.1,3.7-3.1c1.1,0,2,0.3,2.6,0.7l-0.5,1.4c-0.4-0.3-1.2-0.6-2.2-0.6c-1.1,0-1.8,0.7-1.8,1.5c0,0.9,0.6,1.3,2,1.8
			c1.8,0.7,2.8,1.6,2.8,3.2c0,1.9-1.5,3.2-4,3.2c-1.2,0-2.2-0.3-3-0.7L192.6,108.6z"/>
		<path fill="#FFFFFF" d="M201.6,95h1.9v6.6h0c0.3-0.5,0.8-1,1.4-1.4c0.6-0.3,1.3-0.6,2-0.6c1.4,0,3.7,0.9,3.7,4.6v6.3h-1.9v-6.1
			c0-1.7-0.6-3.2-2.5-3.2c-1.3,0-2.2,0.9-2.6,1.9c-0.1,0.3-0.1,0.6-0.1,0.9v6.4h-1.9V95z"/>
		<path fill="#FFFFFF" d="M223.4,105.2c0,3.9-2.7,5.7-5.3,5.7c-2.9,0-5.1-2.1-5.1-5.5c0-3.6,2.3-5.7,5.3-5.7
			C221.4,99.7,223.4,101.9,223.4,105.2z M215,105.3c0,2.3,1.3,4.1,3.2,4.1c1.8,0,3.2-1.7,3.2-4.1c0-1.8-0.9-4.1-3.2-4.1
			C216,101.2,215,103.3,215,105.3z"/>
		<path fill="#FFFFFF" d="M226.5,100l1.4,5.4c0.3,1.2,0.6,2.3,0.8,3.4h0.1c0.2-1.1,0.6-2.2,0.9-3.4l1.7-5.4h1.6l1.7,5.3
			c0.4,1.3,0.7,2.4,0.9,3.5h0.1c0.2-1.1,0.5-2.2,0.8-3.5l1.5-5.3h1.9l-3.4,10.6h-1.8l-1.6-5.1c-0.4-1.2-0.7-2.2-0.9-3.5h0
			c-0.3,1.3-0.6,2.4-1,3.5l-1.7,5.1h-1.8l-3.2-10.6H226.5z"/>
		<path fill="#FFFFFF" d="M251.3,112.3v1.1h-11v-1.1H251.3z"/>
		<path fill="#FFFFFF" d="M252.9,95h1.9v15.6h-1.9V95z"/>
		<path fill="#FFFFFF" d="M267.8,105.2c0,3.9-2.7,5.7-5.3,5.7c-2.9,0-5.1-2.1-5.1-5.5c0-3.6,2.3-5.7,5.3-5.7
			C265.7,99.7,267.8,101.9,267.8,105.2z M259.3,105.3c0,2.3,1.3,4.1,3.2,4.1c1.8,0,3.2-1.7,3.2-4.1c0-1.8-0.9-4.1-3.2-4.1
			C260.3,101.2,259.3,103.3,259.3,105.3z"/>
		<path fill="#FFFFFF" d="M270.8,100l2.1,6c0.4,1,0.6,1.8,0.9,2.7h0.1c0.2-0.9,0.5-1.8,0.9-2.7l2.1-6h2l-4.2,10.6h-1.8l-4-10.6
			H270.8z"/>
		<path fill="#FFFFFF" d="M281.5,105.6c0,2.6,1.7,3.7,3.7,3.7c1.4,0,2.2-0.2,2.9-0.5l0.3,1.4c-0.7,0.3-1.8,0.7-3.5,0.7
			c-3.3,0-5.2-2.2-5.2-5.4s1.9-5.7,5-5.7c3.5,0,4.4,3.1,4.4,5c0,0.4,0,0.7-0.1,0.9H281.5z M287.2,104.2c0-1.2-0.5-3.1-2.7-3.1
			c-2,0-2.8,1.8-3,3.1H287.2z"/>
		<path fill="#FFFFFF" d="M295.6,95.3c-1.6,2.2-2.8,5-2.8,9c0,3.9,1.2,6.7,2.8,8.9h-1.5c-1.4-1.8-2.9-4.6-2.9-8.9
			c0-4.3,1.5-7.2,2.9-9H295.6z"/>
		<path fill="#FFFFFF" d="M296.5,113.3c1.6-2.2,2.8-5,2.8-9c0-3.9-1.2-6.8-2.8-8.9h1.5c1.4,1.8,2.9,4.6,2.9,9c0,4.3-1.5,7.1-2.9,9
			H296.5z"/>
		<path fill="#FFFFFF" d="M302.9,103.7c1.6,0,1.8-0.9,1.8-1.6c0-0.6-0.1-1.2-0.2-1.8c-0.1-0.6-0.2-1.2-0.2-1.8c0-2,1.3-2.9,3.2-2.9
			h0.5v1.2h-0.4c-1.3,0-1.7,0.7-1.7,1.9c0,0.5,0.1,1,0.2,1.6c0.1,0.6,0.2,1.1,0.2,1.7c0,1.4-0.6,2.1-1.6,2.4v0c1,0.2,1.6,1,1.6,2.4
			c0,0.6-0.1,1.1-0.2,1.7c-0.1,0.5-0.2,1.1-0.2,1.6c0,1.2,0.5,1.9,1.7,1.9h0.4v1.2h-0.5c-1.8,0-3.2-0.8-3.2-3c0-0.6,0.1-1.2,0.2-1.8
			c0.1-0.6,0.2-1.2,0.2-1.8c0-0.7-0.2-1.6-1.8-1.6V103.7z"/>
		<path fill="#FFFFFF" d="M130,126.4l2.1,6c0.4,1,0.6,1.8,0.9,2.7h0.1c0.2-0.9,0.6-1.8,0.9-2.7l2.1-6h2l-4.2,10.6H132l-4-10.6H130z"
			/>
		<path fill="#FFFFFF" d="M145.7,137l-0.2-1.3h-0.1c-0.6,0.8-1.7,1.6-3.3,1.6c-2.2,0-3.3-1.5-3.3-3.1c0-2.6,2.3-4,6.4-4V130
			c0-0.9-0.2-2.5-2.4-2.5c-1,0-2,0.3-2.8,0.8l-0.4-1.3c0.9-0.6,2.2-0.9,3.5-0.9c3.3,0,4,2.2,4,4.4v4c0,0.9,0,1.8,0.2,2.6H145.7z
			 M145.4,131.6c-2.1,0-4.5,0.3-4.5,2.4c0,1.3,0.8,1.8,1.8,1.8c1.4,0,2.3-0.9,2.6-1.8c0.1-0.2,0.1-0.4,0.1-0.6V131.6z"/>
		<path fill="#FFFFFF" d="M150.4,129.7c0-1.3,0-2.3-0.1-3.3h1.7l0.1,2.1h0.1c0.5-1.4,1.6-2.3,2.9-2.3c0.2,0,0.4,0,0.6,0.1v1.8
			c-0.2,0-0.4-0.1-0.7-0.1c-1.4,0-2.3,1-2.6,2.5c0,0.3-0.1,0.6-0.1,0.9v5.7h-1.9V129.7z"/>
		<path fill="#FFFFFF" d="M162.2,129.2c0-1.1,0-2-0.1-2.9h1.7l0.1,1.7h0.1c0.6-1,1.6-2,3.3-2c1.5,0,2.6,0.9,3,2.1h0
			c0.3-0.6,0.7-1.1,1.2-1.4c0.6-0.5,1.3-0.7,2.4-0.7c1.4,0,3.5,0.9,3.5,4.6v6.3h-1.9v-6c0-2-0.7-3.3-2.3-3.3c-1.1,0-2,0.8-2.3,1.8
			c-0.1,0.3-0.2,0.6-0.2,1v6.6h-1.9v-6.4c0-1.7-0.7-2.9-2.2-2.9c-1.2,0-2.1,1-2.4,1.9c-0.1,0.3-0.2,0.6-0.2,0.9v6.4h-1.9V129.2z"/>
		<path fill="#FFFFFF" d="M181,126.4l2.3,6.3c0.2,0.7,0.5,1.5,0.7,2.2h0c0.2-0.6,0.4-1.5,0.7-2.2l2.1-6.2h2l-2.9,7.6
			c-1.4,3.7-2.3,5.5-3.7,6.7c-0.9,0.8-1.9,1.2-2.4,1.3l-0.5-1.6c0.5-0.2,1.1-0.5,1.7-0.9c0.5-0.4,1.2-1.2,1.6-2.2
			c0.1-0.2,0.2-0.4,0.2-0.5s0-0.3-0.1-0.5l-3.9-9.8H181z"/>
		<path fill="#FFFFFF" d="M190.4,134.7c0.9,0.5,2.1,1,3.4,1c2,0,3.1-1,3.1-2.5c0-1.4-0.8-2.2-2.8-2.9c-2.4-0.9-3.9-2.1-3.9-4.2
			c0-2.3,1.9-4,4.8-4c1.5,0,2.6,0.4,3.3,0.7l-0.5,1.6c-0.5-0.3-1.5-0.7-2.8-0.7c-2,0-2.8,1.2-2.8,2.2c0,1.4,0.9,2.1,2.9,2.9
			c2.5,1,3.8,2.2,3.8,4.4c0,2.3-1.7,4.3-5.2,4.3c-1.4,0-3-0.4-3.8-0.9L190.4,134.7z"/>
		<path fill="#FFFFFF" d="M203.8,123.3v3.1h2.8v1.5h-2.8v5.7c0,1.3,0.4,2.1,1.5,2.1c0.5,0,0.9-0.1,1.1-0.1l0.1,1.5
			c-0.4,0.2-1,0.3-1.7,0.3c-0.9,0-1.6-0.3-2.1-0.8c-0.6-0.6-0.7-1.5-0.7-2.8v-5.8h-1.7v-1.5h1.7v-2.6L203.8,123.3z"/>
		<path fill="#FFFFFF" d="M208.7,129.7c0-1.3,0-2.3-0.1-3.3h1.7l0.1,2.1h0.1c0.5-1.4,1.6-2.3,2.9-2.3c0.2,0,0.4,0,0.6,0.1v1.8
			c-0.2,0-0.4-0.1-0.7-0.1c-1.4,0-2.3,1-2.6,2.5c0,0.3-0.1,0.6-0.1,0.9v5.7h-1.9V129.7z"/>
		<path fill="#FFFFFF" d="M218.1,123.4c0,0.7-0.5,1.2-1.2,1.2c-0.7,0-1.2-0.5-1.2-1.2c0-0.7,0.5-1.2,1.2-1.2
			C217.7,122.2,218.1,122.7,218.1,123.4z M216,137v-10.6h1.9V137H216z"/>
		<path fill="#FFFFFF" d="M221.1,129.2c0-1.1,0-2-0.1-2.9h1.7l0.1,1.8h0c0.5-1,1.8-2,3.5-2c1.5,0,3.8,0.9,3.8,4.5v6.4h-1.9v-6.1
			c0-1.7-0.6-3.1-2.5-3.1c-1.3,0-2.3,0.9-2.6,2c-0.1,0.2-0.1,0.6-0.1,0.9v6.4h-1.9V129.2z"/>
		<path fill="#FFFFFF" d="M242.5,126.4c0,0.8-0.1,1.6-0.1,2.9v6.2c0,2.4-0.5,3.9-1.5,4.9c-1,1-2.5,1.3-3.9,1.3
			c-1.3,0-2.7-0.3-3.5-0.9l0.5-1.5c0.7,0.4,1.8,0.8,3.1,0.8c2,0,3.4-1,3.4-3.7v-1.2h0c-0.6,1-1.7,1.8-3.4,1.8
			c-2.6,0-4.5-2.2-4.5-5.2c0-3.6,2.4-5.7,4.8-5.7c1.8,0,2.9,1,3.3,1.8h0l0.1-1.6H242.5z M240.5,130.6c0-0.3,0-0.6-0.1-0.9
			c-0.4-1.1-1.3-2-2.7-2c-1.8,0-3.2,1.6-3.2,4c0,2.1,1.1,3.8,3.1,3.8c1.2,0,2.3-0.7,2.7-2c0.1-0.3,0.2-0.7,0.2-1V130.6z"/>
		<path fill="#FFFFFF" d="M249.6,129.6v-1.3h11.4v1.3H249.6z M249.6,133.9v-1.3h11.4v1.3H249.6z"/>
		<path fill="#4FA0CA" d="M265.8,121.9c-0.5,1.8-1.5,4.2-2,5.2l-1.2,0.2c0.5-1.3,1.1-3.6,1.3-5.2L265.8,121.9z M269.1,121.9
			c-0.5,1.8-1.5,4.2-2,5.2l-1.2,0.2c0.5-1.3,1.1-3.6,1.3-5.2L269.1,121.9z"/>
		<path fill="#4FA0CA" d="M274.4,137l-3.8-14.8h2l1.8,7.5c0.4,1.8,0.8,3.7,1.1,5.1h0c0.2-1.5,0.7-3.2,1.2-5.1l2-7.5h2l1.8,7.5
			c0.4,1.8,0.8,3.5,1,5.1h0c0.3-1.6,0.7-3.3,1.2-5.1l2-7.5h2l-4.2,14.8h-2l-1.9-7.7c-0.5-1.9-0.8-3.3-1-4.8h0
			c-0.3,1.5-0.6,2.9-1.1,4.8l-2.1,7.7H274.4z"/>
		<path fill="#4FA0CA" d="M290.8,132c0,2.6,1.7,3.7,3.7,3.7c1.4,0,2.2-0.2,2.9-0.5l0.3,1.4c-0.7,0.3-1.8,0.7-3.5,0.7
			c-3.3,0-5.2-2.2-5.2-5.4c0-3.2,1.9-5.7,5-5.7c3.5,0,4.4,3.1,4.4,5c0,0.4,0,0.7-0.1,0.9H290.8z M296.5,130.6c0-1.2-0.5-3.1-2.7-3.1
			c-2,0-2.8,1.8-3,3.1H296.5z"/>
		<path fill="#4FA0CA" d="M305.5,121.4h1.9V137h-1.9V121.4z"/>
		<path fill="#4FA0CA" d="M320.3,131.6c0,3.9-2.7,5.7-5.3,5.7c-2.9,0-5.1-2.1-5.1-5.5c0-3.6,2.3-5.7,5.3-5.7
			C318.2,126.1,320.3,128.3,320.3,131.6z M311.8,131.7c0,2.3,1.3,4.1,3.2,4.1c1.8,0,3.2-1.7,3.2-4.1c0-1.8-0.9-4.1-3.2-4.1
			C312.8,127.6,311.8,129.7,311.8,131.7z"/>
		<path fill="#4FA0CA" d="M323.3,126.4l2.1,6c0.4,1,0.6,1.8,0.9,2.7h0.1c0.2-0.9,0.5-1.8,0.9-2.7l2.1-6h2l-4.2,10.6h-1.8l-4-10.6
			H323.3z"/>
		<path fill="#4FA0CA" d="M334,132c0,2.6,1.7,3.7,3.7,3.7c1.4,0,2.2-0.2,2.9-0.5l0.3,1.4c-0.7,0.3-1.8,0.7-3.5,0.7
			c-3.3,0-5.2-2.2-5.2-5.4c0-3.2,1.9-5.7,5-5.7c3.5,0,4.4,3.1,4.4,5c0,0.4,0,0.7-0.1,0.9H334z M339.7,130.6c0-1.2-0.5-3.1-2.7-3.1
			c-2,0-2.8,1.8-3,3.1H339.7z"/>
		<path fill="#4FA0CA" d="M356.2,136.6c-0.5,0.3-1.6,0.6-3.1,0.6c-3.2,0-5.3-2.2-5.3-5.4c0-3.3,2.2-5.7,5.7-5.7
			c1.1,0,2.2,0.3,2.7,0.6l-0.4,1.5c-0.5-0.3-1.2-0.5-2.2-0.5c-2.4,0-3.8,1.8-3.8,4c0,2.5,1.6,4,3.7,4c1.1,0,1.8-0.3,2.4-0.5
			L356.2,136.6z"/>
		<path fill="#4FA0CA" d="M368,131.6c0,3.9-2.7,5.7-5.3,5.7c-2.9,0-5.1-2.1-5.1-5.5c0-3.6,2.3-5.7,5.3-5.7
			C365.9,126.1,368,128.3,368,131.6z M359.5,131.7c0,2.3,1.3,4.1,3.2,4.1c1.8,0,3.2-1.7,3.2-4.1c0-1.8-0.9-4.1-3.2-4.1
			C360.5,127.6,359.5,129.7,359.5,131.7z"/>
		<path fill="#4FA0CA" d="M379.6,121.4v12.9c0,0.9,0,2,0.1,2.8H378l-0.1-1.8h0c-0.6,1.2-1.9,2.1-3.6,2.1c-2.6,0-4.6-2.2-4.6-5.4
			c0-3.5,2.2-5.7,4.8-5.7c1.6,0,2.7,0.8,3.2,1.6h0v-6.4H379.6z M377.7,130.7c0-0.2,0-0.6-0.1-0.8c-0.3-1.2-1.3-2.2-2.8-2.2
			c-2,0-3.2,1.8-3.2,4.1c0,2.2,1.1,3.9,3.1,3.9c1.3,0,2.5-0.9,2.8-2.3c0.1-0.3,0.1-0.5,0.1-0.8V130.7z"/>
		<path fill="#4FA0CA" d="M385,123.4c0,0.7-0.5,1.2-1.2,1.2c-0.7,0-1.2-0.5-1.2-1.2c0-0.7,0.5-1.2,1.2-1.2
			C384.5,122.2,385,122.7,385,123.4z M382.8,137v-10.6h1.9V137H382.8z"/>
		<path fill="#4FA0CA" d="M388,129.2c0-1.1,0-2-0.1-2.9h1.7l0.1,1.8h0c0.5-1,1.8-2,3.5-2c1.5,0,3.8,0.9,3.8,4.5v6.4h-1.9v-6.1
			c0-1.7-0.6-3.1-2.5-3.1c-1.3,0-2.3,0.9-2.6,2c-0.1,0.2-0.1,0.6-0.1,0.9v6.4H388V129.2z"/>
		<path fill="#4FA0CA" d="M409.4,126.4c0,0.8-0.1,1.6-0.1,2.9v6.2c0,2.4-0.5,3.9-1.5,4.9c-1,1-2.5,1.3-3.9,1.3
			c-1.3,0-2.7-0.3-3.5-0.9l0.5-1.5c0.7,0.4,1.8,0.8,3.1,0.8c2,0,3.4-1,3.4-3.7v-1.2h0c-0.6,1-1.7,1.8-3.4,1.8
			c-2.6,0-4.5-2.2-4.5-5.2c0-3.6,2.4-5.7,4.8-5.7c1.8,0,2.9,1,3.3,1.8h0l0.1-1.6H409.4z M407.4,130.6c0-0.3,0-0.6-0.1-0.9
			c-0.4-1.1-1.3-2-2.7-2c-1.8,0-3.2,1.6-3.2,4c0,2.1,1.1,3.8,3.1,3.8c1.2,0,2.3-0.7,2.7-2c0.1-0.3,0.2-0.7,0.2-1V130.6z"/>
		<path fill="#4FA0CA" d="M414.4,121.9c-0.5,1.8-1.5,4.2-2,5.2l-1.2,0.2c0.5-1.3,1.1-3.6,1.3-5.2L414.4,121.9z M417.7,121.9
			c-0.5,1.8-1.5,4.2-2,5.2l-1.2,0.2c0.5-1.3,1.1-3.6,1.3-5.2L417.7,121.9z"/>
		<path fill="#FFFFFF" d="M136.9,163c-0.5,0.3-1.6,0.6-3.1,0.6c-3.2,0-5.3-2.2-5.3-5.4c0-3.3,2.2-5.7,5.7-5.7c1.1,0,2.2,0.3,2.7,0.6
			l-0.4,1.5c-0.5-0.3-1.2-0.5-2.2-0.5c-2.4,0-3.8,1.8-3.8,4c0,2.5,1.6,4,3.7,4c1.1,0,1.8-0.3,2.4-0.5L136.9,163z"/>
		<path fill="#FFFFFF" d="M148.6,158c0,3.9-2.7,5.7-5.3,5.7c-2.9,0-5.1-2.1-5.1-5.5c0-3.6,2.3-5.7,5.3-5.7
			C146.6,152.5,148.6,154.7,148.6,158z M140.2,158.1c0,2.3,1.3,4.1,3.2,4.1c1.8,0,3.2-1.7,3.2-4.1c0-1.8-0.9-4.1-3.2-4.1
			C141.2,154,140.2,156.1,140.2,158.1z"/>
		<path fill="#FFFFFF" d="M151.1,155.6c0-1.1,0-2-0.1-2.9h1.7l0.1,1.8h0c0.5-1,1.8-2,3.5-2c1.5,0,3.8,0.9,3.8,4.5v6.4h-1.9v-6.1
			c0-1.7-0.6-3.1-2.5-3.1c-1.3,0-2.3,0.9-2.6,2c-0.1,0.2-0.1,0.6-0.1,0.9v6.4h-1.9V155.6z"/>
		<path fill="#FFFFFF" d="M163,161.4c0.6,0.4,1.6,0.8,2.6,0.8c1.4,0,2.1-0.7,2.1-1.6c0-0.9-0.6-1.4-2-2c-1.9-0.7-2.8-1.7-2.8-3
			c0-1.7,1.4-3.1,3.7-3.1c1.1,0,2,0.3,2.6,0.7l-0.5,1.4c-0.4-0.3-1.2-0.6-2.2-0.6c-1.1,0-1.8,0.7-1.8,1.5c0,0.9,0.6,1.3,2,1.8
			c1.8,0.7,2.8,1.6,2.8,3.2c0,1.9-1.5,3.2-4,3.2c-1.2,0-2.2-0.3-3-0.7L163,161.4z"/>
		<path fill="#FFFFFF" d="M181.6,158c0,3.9-2.7,5.7-5.3,5.7c-2.9,0-5.1-2.1-5.1-5.5c0-3.6,2.3-5.7,5.3-5.7
			C179.6,152.5,181.6,154.7,181.6,158z M173.2,158.1c0,2.3,1.3,4.1,3.2,4.1c1.8,0,3.2-1.7,3.2-4.1c0-1.8-0.9-4.1-3.2-4.1
			C174.2,154,173.2,156.1,173.2,158.1z"/>
		<path fill="#FFFFFF" d="M184.1,147.8h1.9v15.6h-1.9V147.8z"/>
		<path fill="#FFFFFF" d="M190.3,158.4c0,2.6,1.7,3.7,3.7,3.7c1.4,0,2.2-0.2,2.9-0.5l0.3,1.4c-0.7,0.3-1.8,0.7-3.5,0.7
			c-3.3,0-5.2-2.2-5.2-5.4s1.9-5.7,5-5.7c3.5,0,4.4,3.1,4.4,5c0,0.4,0,0.7-0.1,0.9H190.3z M196,157c0-1.2-0.5-3.1-2.7-3.1
			c-2,0-2.8,1.8-3,3.1H196z"/>
		<path fill="#FFFFFF" d="M199.6,162.3c0-0.8,0.6-1.4,1.3-1.4s1.3,0.6,1.3,1.4c0,0.8-0.5,1.4-1.3,1.4
			C200.1,163.6,199.6,163,199.6,162.3z"/>
		<path fill="#008837" d="M204.6,147.8h1.9v15.6h-1.9V147.8z"/>
		<path fill="#008837" d="M219.4,158c0,3.9-2.7,5.7-5.3,5.7c-2.9,0-5.1-2.1-5.1-5.5c0-3.6,2.3-5.7,5.3-5.7
			C217.3,152.5,219.4,154.7,219.4,158z M210.9,158.1c0,2.3,1.3,4.1,3.2,4.1c1.8,0,3.2-1.7,3.2-4.1c0-1.8-0.9-4.1-3.2-4.1
			C211.9,154,210.9,156.1,210.9,158.1z"/>
		<path fill="#008837" d="M231,152.8c0,0.8-0.1,1.6-0.1,2.9v6.2c0,2.4-0.5,3.9-1.5,4.9c-1,1-2.5,1.3-3.9,1.3c-1.3,0-2.7-0.3-3.5-0.9
			l0.5-1.5c0.7,0.4,1.8,0.8,3.1,0.8c2,0,3.4-1,3.4-3.7v-1.2h0c-0.6,1-1.7,1.8-3.4,1.8c-2.6,0-4.5-2.2-4.5-5.2c0-3.6,2.4-5.7,4.8-5.7
			c1.8,0,2.9,1,3.3,1.8h0l0.1-1.6H231z M229,157c0-0.3,0-0.6-0.1-0.9c-0.4-1.1-1.3-2-2.7-2c-1.8,0-3.2,1.6-3.2,4
			c0,2.1,1.1,3.8,3.1,3.8c1.2,0,2.3-0.7,2.7-2c0.1-0.3,0.2-0.7,0.2-1V157z"/>
		<path fill="#FFFFFF" d="M238.3,148.1c-1.6,2.2-2.8,5-2.8,9c0,3.9,1.2,6.7,2.8,8.9h-1.5c-1.4-1.8-2.9-4.6-2.9-8.9
			c0-4.3,1.5-7.2,2.9-9H238.3z"/>
		<path fill="#FFFFFF" d="M240.4,155.6c0-1.1,0-2-0.1-2.9h1.7l0.1,1.7h0.1c0.6-1,1.6-2,3.3-2c1.5,0,2.6,0.9,3,2.1h0
			c0.3-0.6,0.7-1.1,1.2-1.4c0.6-0.5,1.3-0.7,2.4-0.7c1.4,0,3.5,0.9,3.5,4.6v6.3h-1.9v-6c0-2-0.7-3.3-2.3-3.3c-1.1,0-2,0.8-2.3,1.8
			c-0.1,0.3-0.2,0.6-0.2,1v6.6H247V157c0-1.7-0.7-2.9-2.2-2.9c-1.2,0-2.1,1-2.4,1.9c-0.1,0.3-0.2,0.6-0.2,0.9v6.4h-1.9V155.6z"/>
		<path fill="#FFFFFF" d="M259.1,152.8l2.3,6.3c0.2,0.7,0.5,1.5,0.7,2.2h0c0.2-0.6,0.4-1.5,0.7-2.2l2.1-6.2h2l-2.9,7.6
			c-1.4,3.7-2.3,5.5-3.7,6.7c-0.9,0.8-1.9,1.2-2.4,1.3l-0.5-1.6c0.5-0.2,1.1-0.5,1.7-0.9c0.5-0.4,1.2-1.2,1.6-2.2
			c0.1-0.2,0.2-0.4,0.2-0.5c0-0.1,0-0.3-0.1-0.5l-3.9-9.8H259.1z"/>
		<path fill="#FFFFFF" d="M268.6,161.1c0.9,0.5,2.1,1,3.4,1c2,0,3.1-1,3.1-2.5c0-1.4-0.8-2.2-2.8-2.9c-2.4-0.9-3.9-2.1-3.9-4.2
			c0-2.3,1.9-4,4.8-4c1.5,0,2.6,0.4,3.3,0.7l-0.5,1.6c-0.5-0.3-1.5-0.7-2.8-0.7c-2,0-2.8,1.2-2.8,2.2c0,1.4,0.9,2.1,2.9,2.9
			c2.5,1,3.8,2.2,3.8,4.4c0,2.3-1.7,4.3-5.2,4.3c-1.4,0-3-0.4-3.8-0.9L268.6,161.1z"/>
		<path fill="#FFFFFF" d="M281.9,149.7v3.1h2.8v1.5h-2.8v5.7c0,1.3,0.4,2.1,1.5,2.1c0.5,0,0.9-0.1,1.1-0.1l0.1,1.5
			c-0.4,0.2-1,0.3-1.7,0.3c-0.9,0-1.6-0.3-2.1-0.8c-0.5-0.6-0.7-1.5-0.7-2.8v-5.8h-1.6v-1.5h1.6v-2.6L281.9,149.7z"/>
		<path fill="#FFFFFF" d="M286.9,156.1c0-1.3,0-2.3-0.1-3.3h1.7l0.1,2.1h0.1c0.5-1.4,1.7-2.3,2.9-2.3c0.2,0,0.4,0,0.6,0.1v1.8
			c-0.2,0-0.4-0.1-0.7-0.1c-1.4,0-2.3,1-2.6,2.5c0,0.3-0.1,0.6-0.1,0.9v5.7h-1.9V156.1z"/>
		<path fill="#FFFFFF" d="M296.3,149.8c0,0.7-0.5,1.2-1.2,1.2c-0.7,0-1.2-0.5-1.2-1.2c0-0.7,0.5-1.2,1.2-1.2
			C295.8,148.6,296.3,149.1,296.3,149.8z M294.2,163.4v-10.6h1.9v10.6H294.2z"/>
		<path fill="#FFFFFF" d="M299.3,155.6c0-1.1,0-2-0.1-2.9h1.7l0.1,1.8h0c0.5-1,1.8-2,3.5-2c1.5,0,3.8,0.9,3.8,4.5v6.4h-1.9v-6.1
			c0-1.7-0.6-3.1-2.5-3.1c-1.3,0-2.3,0.9-2.6,2c-0.1,0.2-0.1,0.6-0.1,0.9v6.4h-1.9V155.6z"/>
		<path fill="#FFFFFF" d="M320.7,152.8c0,0.8-0.1,1.6-0.1,2.9v6.2c0,2.4-0.5,3.9-1.5,4.9c-1,1-2.5,1.3-3.9,1.3
			c-1.3,0-2.7-0.3-3.5-0.9l0.5-1.5c0.7,0.4,1.8,0.8,3.1,0.8c2,0,3.4-1,3.4-3.7v-1.2h0c-0.6,1-1.7,1.8-3.4,1.8
			c-2.6,0-4.5-2.2-4.5-5.2c0-3.6,2.4-5.7,4.8-5.7c1.8,0,2.9,1,3.3,1.8h0l0.1-1.6H320.7z M318.7,157c0-0.3,0-0.6-0.1-0.9
			c-0.4-1.1-1.3-2-2.7-2c-1.8,0-3.2,1.6-3.2,4c0,2.1,1.1,3.8,3.1,3.8c1.2,0,2.3-0.7,2.7-2c0.1-0.3,0.2-0.7,0.2-1V157z"/>
		<path fill="#FFFFFF" d="M322.6,166.1c1.6-2.2,2.8-5,2.8-9c0-3.9-1.2-6.8-2.8-8.9h1.5c1.4,1.8,2.9,4.6,2.9,9c0,4.3-1.5,7.1-2.9,9
			H322.6z"/>
		<path fill="#FFFFFF" d="M328.8,166.1c0.5-1.3,1.1-3.7,1.3-5.3l2.1-0.2c-0.5,1.9-1.5,4.3-2.1,5.3L328.8,166.1z M329.8,154.5
			c0-0.8,0.5-1.4,1.3-1.4c0.8,0,1.3,0.6,1.3,1.4c0,0.8-0.5,1.4-1.3,1.4C330.3,155.9,329.8,155.3,329.8,154.5z"/>
		<path fill="#FFFFFF" d="M114.6,184c-1.6,0-1.8,0.9-1.8,1.6c0,0.6,0.1,1.2,0.2,1.8c0.1,0.6,0.2,1.2,0.2,1.8c0,2.2-1.4,3-3.2,3h-0.5
			v-1.2h0.4c1.2,0,1.8-0.7,1.8-1.9c0-0.5-0.1-1-0.2-1.6c-0.1-0.5-0.2-1.1-0.2-1.7c0-1.4,0.6-2.2,1.6-2.4v0c-1-0.3-1.6-1-1.6-2.4
			c0-0.6,0.1-1.1,0.2-1.7c0.1-0.5,0.2-1.1,0.2-1.6c0-1.2-0.5-1.9-1.7-1.9h-0.4v-1.2h0.4c1.9,0,3.2,0.9,3.2,2.9
			c0,0.6-0.1,1.2-0.2,1.8c-0.1,0.6-0.2,1.2-0.2,1.8c0,0.8,0.2,1.6,1.8,1.6V184z"/>
	</g>
</g>
</svg>
